<svg aria-roledescription="flowchart-v2" role="graphics-document document" viewBox="-8 -8 410.5703125 1041.5625" xmlns="http://www.w3.org/2000/svg" id="mmd-dark-1028" width="411" height="1042"><style>#mmd-dark-1028{font-family:"IBM Plex Sans KR","Apple SD Gothic Neo","Malgun Gothic",system-ui,sans-serif;font-size:16px;fill:#ccc;}#mmd-dark-1028 .error-icon{fill:#a44141;}#mmd-dark-1028 .error-text{fill:#ddd;stroke:#ddd;}#mmd-dark-1028 .edge-thickness-normal{stroke-width:2px;}#mmd-dark-1028 .edge-thickness-thick{stroke-width:3.5px;}#mmd-dark-1028 .edge-pattern-solid{stroke-dasharray:0;}#mmd-dark-1028 .edge-pattern-dashed{stroke-dasharray:3;}#mmd-dark-1028 .edge-pattern-dotted{stroke-dasharray:2;}#mmd-dark-1028 .marker{fill:lightgrey;stroke:lightgrey;}#mmd-dark-1028 .marker.cross{stroke:lightgrey;}#mmd-dark-1028 svg{font-family:"IBM Plex Sans KR","Apple SD Gothic Neo","Malgun Gothic",system-ui,sans-serif;font-size:16px;}#mmd-dark-1028 .label{font-family:"IBM Plex Sans KR","Apple SD Gothic Neo","Malgun Gothic",system-ui,sans-serif;color:#ccc;}#mmd-dark-1028 .cluster-label text{fill:#F9FFFE;}#mmd-dark-1028 .cluster-label span,#mmd-dark-1028 p{color:#F9FFFE;}#mmd-dark-1028 .label text,#mmd-dark-1028 span,#mmd-dark-1028 p{fill:#ccc;color:#ccc;}#mmd-dark-1028 .node rect,#mmd-dark-1028 .node circle,#mmd-dark-1028 .node ellipse,#mmd-dark-1028 .node polygon,#mmd-dark-1028 .node path{fill:#1f2020;stroke:#81B1DB;stroke-width:1px;}#mmd-dark-1028 .flowchart-label text{text-anchor:middle;}#mmd-dark-1028 .node .katex path{fill:#000;stroke:#000;stroke-width:1px;}#mmd-dark-1028 .node .label{text-align:center;}#mmd-dark-1028 .node.clickable{cursor:pointer;}#mmd-dark-1028 .arrowheadPath{fill:lightgrey;}#mmd-dark-1028 .edgePath .path{stroke:lightgrey;stroke-width:2.0px;}#mmd-dark-1028 .flowchart-link{stroke:lightgrey;fill:none;}#mmd-dark-1028 .edgeLabel{background-color:hsl(0, 0%, 34.4117647059%);text-align:center;}#mmd-dark-1028 .edgeLabel rect{opacity:0.5;background-color:hsl(0, 0%, 34.4117647059%);fill:hsl(0, 0%, 34.4117647059%);}#mmd-dark-1028 .labelBkg{background-color:rgba(87.75, 87.75, 87.75, 0.5);}#mmd-dark-1028 .cluster rect{fill:hsl(180, 1.5873015873%, 28.3529411765%);stroke:rgba(255, 255, 255, 0.25);stroke-width:1px;}#mmd-dark-1028 .cluster text{fill:#F9FFFE;}#mmd-dark-1028 .cluster span,#mmd-dark-1028 p{color:#F9FFFE;}#mmd-dark-1028 div.mermaidTooltip{position:absolute;text-align:center;max-width:200px;padding:2px;font-family:"IBM Plex Sans KR","Apple SD Gothic Neo","Malgun Gothic",system-ui,sans-serif;font-size:12px;background:hsl(20, 1.5873015873%, 12.3529411765%);border:1px solid rgba(255, 255, 255, 0.25);border-radius:2px;pointer-events:none;z-index:100;}#mmd-dark-1028 .flowchartTitleText{text-anchor:middle;font-size:18px;fill:#ccc;}#mmd-dark-1028 :root{--mermaid-font-family:"IBM Plex Sans KR","Apple SD Gothic Neo","Malgun Gothic",system-ui,sans-serif;}</style><g><marker orient="auto" markerHeight="12" markerWidth="12" markerUnits="userSpaceOnUse" refY="5" refX="6" viewBox="0 0 10 10" class="marker flowchart" id="mmd-dark-1028_flowchart-pointEnd"><path style="stroke-width: 1; stroke-dasharray: 1, 0;" class="arrowMarkerPath" d="M 0 0 L 10 5 L 0 10 z"></path></marker><marker orient="auto" markerHeight="12" markerWidth="12" markerUnits="userSpaceOnUse" refY="5" refX="4.5" viewBox="0 0 10 10" class="marker flowchart" id="mmd-dark-1028_flowchart-pointStart"><path style="stroke-width: 1; stroke-dasharray: 1, 0;" class="arrowMarkerPath" d="M 0 5 L 10 10 L 10 0 z"></path></marker><marker orient="auto" markerHeight="11" markerWidth="11" markerUnits="userSpaceOnUse" refY="5" refX="11" viewBox="0 0 10 10" class="marker flowchart" id="mmd-dark-1028_flowchart-circleEnd"><circle style="stroke-width: 1; stroke-dasharray: 1, 0;" class="arrowMarkerPath" r="5" cy="5" cx="5"></circle></marker><marker orient="auto" markerHeight="11" markerWidth="11" markerUnits="userSpaceOnUse" refY="5" refX="-1" viewBox="0 0 10 10" class="marker flowchart" id="mmd-dark-1028_flowchart-circleStart"><circle style="stroke-width: 1; stroke-dasharray: 1, 0;" class="arrowMarkerPath" r="5" cy="5" cx="5"></circle></marker><marker orient="auto" markerHeight="11" markerWidth="11" markerUnits="userSpaceOnUse" refY="5.2" refX="12" viewBox="0 0 11 11" class="marker cross flowchart" id="mmd-dark-1028_flowchart-crossEnd"><path style="stroke-width: 2; stroke-dasharray: 1, 0;" class="arrowMarkerPath" d="M 1,1 l 9,9 M 10,1 l -9,9"></path></marker><marker orient="auto" markerHeight="11" markerWidth="11" markerUnits="userSpaceOnUse" refY="5.2" refX="-1" viewBox="0 0 11 11" class="marker cross flowchart" id="mmd-dark-1028_flowchart-crossStart"><path style="stroke-width: 2; stroke-dasharray: 1, 0;" class="arrowMarkerPath" d="M 1,1 l 9,9 M 10,1 l -9,9"></path></marker><g class="root"><g class="clusters"></g><g class="edgePaths"><path marker-end="url(#mmd-dark-1028_flowchart-pointEnd)" style="fill:none;" class="edge-thickness-normal edge-pattern-solid flowchart-link LS-C LE-M" id="L-C-M-0" d="M191.266,35L191.266,39.167C191.266,43.333,191.266,51.667,191.266,59.117C191.266,66.567,191.266,73.133,191.266,76.417L191.266,79.7"></path><path marker-end="url(#mmd-dark-1028_flowchart-pointEnd)" style="fill:none;" class="edge-thickness-normal edge-pattern-solid flowchart-link LS-M LE-A" id="L-M-A-0" d="M191.266,120L191.266,124.167C191.266,128.333,191.266,136.667,191.332,144.2C191.398,151.734,191.53,158.467,191.596,161.834L191.662,165.201"></path><path marker-end="url(#mmd-dark-1028_flowchart-pointEnd)" style="fill:none;" class="edge-thickness-normal edge-pattern-solid flowchart-link LS-A LE-X" id="L-A-X-0" d="M225.796,299.657L233.945,311.078C242.093,322.5,258.39,345.344,266.539,380.573C274.688,415.802,274.688,463.417,274.688,511.031C274.688,558.646,274.688,606.26,277.059,635.102C279.43,663.943,284.173,674.012,286.545,679.046L288.916,684.08"></path><path marker-end="url(#mmd-dark-1028_flowchart-pointEnd)" style="fill:none;" class="edge-thickness-normal edge-pattern-solid flowchart-link LS-A LE-R" id="L-A-R-0" d="M157.735,299.657L149.42,311.078C141.104,322.5,124.474,345.344,116.23,361.799C107.986,378.254,108.127,388.321,108.198,393.355L108.269,398.388"></path><path marker-end="url(#mmd-dark-1028_flowchart-pointEnd)" style="fill:none;" class="edge-thickness-normal edge-pattern-solid flowchart-link LS-R LE-X" id="L-R-X-0" d="M172.966,554.752L197.708,571.273C222.45,587.793,271.934,620.834,294.573,642.373C317.212,663.912,313.006,673.95,310.903,678.968L308.8,683.987"></path><path marker-end="url(#mmd-dark-1028_flowchart-pointEnd)" style="fill:none;" class="edge-thickness-normal edge-pattern-solid flowchart-link LS-R LE-P" id="L-R-P-0" d="M108.344,619.375L108.26,625.125C108.177,630.875,108.01,642.375,107.927,656.875C107.844,671.375,107.844,688.875,107.844,706.375C107.844,723.875,107.844,741.375,107.844,766.516C107.844,791.656,107.844,824.438,107.844,857.219C107.844,890,107.844,922.781,110.06,944.197C112.276,965.613,116.708,975.663,118.924,980.688L121.14,985.713"></path><path marker-end="url(#mmd-dark-1028_flowchart-pointEnd)" style="fill:none;" class="edge-thickness-normal edge-pattern-solid flowchart-link LS-X LE-E" id="L-X-E-0" d="M299.418,723.875L299.418,729.708C299.418,735.542,299.418,747.208,299.489,758.075C299.56,768.942,299.702,779.009,299.772,784.042L299.843,789.076"></path><path marker-end="url(#mmd-dark-1028_flowchart-pointEnd)" style="fill:none;" class="edge-thickness-normal edge-pattern-solid flowchart-link LS-E LE-P" id="L-E-P-0" d="M270.551,891.696L261.196,902.34C251.84,912.985,233.129,934.274,215.252,950.281C197.375,966.288,180.332,977.014,171.811,982.377L163.289,987.74"></path><path marker-end="url(#mmd-dark-1028_flowchart-pointEnd)" style="fill:none;" class="edge-thickness-normal edge-pattern-solid flowchart-link LS-E LE-F" id="L-E-F-0" d="M316.598,904.383L319.593,912.913C322.589,921.443,328.579,938.503,331.575,951.983C334.57,965.463,334.57,975.363,334.57,980.313L334.57,985.263"></path></g><g class="edgeLabels"><g class="edgeLabel"><g transform="translate(0, 0)" class="label"><rect height="0" width="0" ry="0" rx="0"></rect><text style=""><tspan class="row" x="0" dy="1em" xml:space="preserve"></tspan></text></g></g><g class="edgeLabel"><g transform="translate(0, 0)" class="label"><rect height="0" width="0" ry="0" rx="0"></rect><text style=""><tspan class="row" x="0" dy="1em" xml:space="preserve"></tspan></text></g></g><g transform="translate(274.6875, 511.03125)" class="edgeLabel"><g transform="translate(-24, -10)" class="label"><rect height="19.00057029724121" width="47.954566955566406" ry="0" rx="0"></rect><text style=""><tspan class="row" x="0" dy="1em" xml:space="preserve">아니오</tspan></text></g></g><g transform="translate(107.84375, 368.1875)" class="edgeLabel"><g transform="translate(-8, -10)" class="label"><rect height="19.00057029724121" width="15.984855651855469" ry="0" rx="0"></rect><text style=""><tspan class="row" x="0" dy="1em" xml:space="preserve">예</tspan></text></g></g><g transform="translate(321.41796875, 653.875)" class="edgeLabel"><g transform="translate(-24, -10)" class="label"><rect height="19.00057029724121" width="47.954566955566406" ry="0" rx="0"></rect><text style=""><tspan class="row" x="0" dy="1em" xml:space="preserve">아니오</tspan></text></g></g><g transform="translate(107.84375, 758.875)" class="edgeLabel"><g transform="translate(-8, -10)" class="label"><rect height="19.00057029724121" width="15.984855651855469" ry="0" rx="0"></rect><text style=""><tspan class="row" x="0" dy="1em" xml:space="preserve">예</tspan></text></g></g><g class="edgeLabel"><g transform="translate(0, 0)" class="label"><rect height="0" width="0" ry="0" rx="0"></rect><text style=""><tspan class="row" x="0" dy="1em" xml:space="preserve"></tspan></text></g></g><g transform="translate(214.41796875, 955.5625)" class="edgeLabel"><g transform="translate(-26.3046875, -10)" class="label"><rect height="19.00057029724121" width="52.56407928466797" ry="0" rx="0"></rect><text style=""><tspan class="row" x="0" dy="1em" xml:space="preserve">예·기록</tspan></text></g></g><g transform="translate(334.5703125, 955.5625)" class="edgeLabel"><g transform="translate(-24, -10)" class="label"><rect height="19.00057029724121" width="47.954566955566406" ry="0" rx="0"></rect><text style=""><tspan class="row" x="0" dy="1em" xml:space="preserve">아니오</tspan></text></g></g></g><g class="nodes"><g transform="translate(191.265625, 17.5)" data-id="C" data-node="true" id="flowchart-C-4716" class="node default default flowchart-label"><rect height="35" width="83.5" y="-17.5" x="-41.75" ry="0" rx="0" style="" class="basic label-container"></rect><g transform="translate(0, -10)" style="" class="label"><rect></rect><text style=""><tspan class="row" x="0" dy="1em" xml:space="preserve">후보 버전</tspan></text></g></g><g transform="translate(191.265625, 102.5)" data-id="M" data-node="true" id="flowchart-M-4717" class="node default default flowchart-label"><rect height="35" width="188.609375" y="-17.5" x="-94.3046875" ry="0" rx="0" style="" class="basic label-container"></rect><g transform="translate(0, -10)" style="" class="label"><rect></rect><text style=""><tspan class="row" x="0" dy="1em" xml:space="preserve">평가·시나리오 회귀 실행</tspan></text></g></g><g transform="translate(191.265625, 251.59375)" data-id="A" data-node="true" id="flowchart-A-4719" class="node default default flowchart-label"><polygon style="" transform="translate(-81.59375,81.59375)" class="label-container" points="81.59375,0 163.1875,-81.59375 81.59375,-163.1875 0,-81.59375"></polygon><g transform="translate(0, -10)" style="" class="label"><rect></rect><text style=""><tspan class="row" x="0" dy="1em" xml:space="preserve">절대 하한 충족?</tspan></text></g></g><g transform="translate(299.41796875, 706.375)" data-id="X" data-node="true" id="flowchart-X-4721" class="node default default flowchart-label"><rect height="35" width="99.609375" y="-17.5" x="-49.8046875" ry="0" rx="0" style="" class="basic label-container"></rect><g transform="translate(0, -10)" style="" class="label"><rect></rect><text style=""><tspan class="row" x="0" dy="1em" xml:space="preserve">차단·리포트</tspan></text></g></g><g transform="translate(107.84375, 511.03125)" data-id="R" data-node="true" id="flowchart-R-4723" class="node default default flowchart-label"><polygon style="" transform="translate(-107.84375,107.84375)" class="label-container" points="107.84375,0 215.6875,-107.84375 107.84375,-215.6875 0,-107.84375"></polygon><g transform="translate(0, -10)" style="" class="label"><rect></rect><text style=""><tspan class="row" x="0" dy="1em" xml:space="preserve">이전 대비 악화폭 허용?</tspan></text></g></g><g transform="translate(130.99609375, 1008.0625)" data-id="P" data-node="true" id="flowchart-P-4727" class="node default default flowchart-label"><rect height="35" width="120" y="-17.5" x="-60" ry="0" rx="0" style="" class="basic label-container"></rect><g transform="translate(0, -10)" style="" class="label"><rect></rect><text style=""><tspan class="row" x="0" dy="1em" xml:space="preserve">다음 단계 진행</tspan></text></g></g><g transform="translate(299.41796875, 857.21875)" data-id="E" data-node="true" id="flowchart-E-4729" class="node default default flowchart-label"><polygon style="" transform="translate(-63.34375,63.34375)" class="label-container" points="63.34375,0 126.6875,-63.34375 63.34375,-126.6875 0,-63.34375"></polygon><g transform="translate(0, -10)" style="" class="label"><rect></rect><text style=""><tspan class="row" x="0" dy="1em" xml:space="preserve">예외 승인?</tspan></text></g></g><g transform="translate(334.5703125, 1008.0625)" data-id="F" data-node="true" id="flowchart-F-4733" class="node default default flowchart-label"><rect height="35" width="120" y="-17.5" x="-60" ry="0" rx="0" style="" class="basic label-container"></rect><g transform="translate(0, -10)" style="" class="label"><rect></rect><text style=""><tspan class="row" x="0" dy="1em" xml:space="preserve">수정 후 재제출</tspan></text></g></g></g></g></g></svg>