<svg aria-roledescription="flowchart-v2" role="graphics-document document" viewBox="-8 -8 327.125 561" xmlns="http://www.w3.org/2000/svg" id="mmd-dark-1041" width="328" height="561"><style>#mmd-dark-1041{font-family:"IBM Plex Sans KR","Apple SD Gothic Neo","Malgun Gothic",system-ui,sans-serif;font-size:16px;fill:#ccc;}#mmd-dark-1041 .error-icon{fill:#a44141;}#mmd-dark-1041 .error-text{fill:#ddd;stroke:#ddd;}#mmd-dark-1041 .edge-thickness-normal{stroke-width:2px;}#mmd-dark-1041 .edge-thickness-thick{stroke-width:3.5px;}#mmd-dark-1041 .edge-pattern-solid{stroke-dasharray:0;}#mmd-dark-1041 .edge-pattern-dashed{stroke-dasharray:3;}#mmd-dark-1041 .edge-pattern-dotted{stroke-dasharray:2;}#mmd-dark-1041 .marker{fill:lightgrey;stroke:lightgrey;}#mmd-dark-1041 .marker.cross{stroke:lightgrey;}#mmd-dark-1041 svg{font-family:"IBM Plex Sans KR","Apple SD Gothic Neo","Malgun Gothic",system-ui,sans-serif;font-size:16px;}#mmd-dark-1041 .label{font-family:"IBM Plex Sans KR","Apple SD Gothic Neo","Malgun Gothic",system-ui,sans-serif;color:#ccc;}#mmd-dark-1041 .cluster-label text{fill:#F9FFFE;}#mmd-dark-1041 .cluster-label span,#mmd-dark-1041 p{color:#F9FFFE;}#mmd-dark-1041 .label text,#mmd-dark-1041 span,#mmd-dark-1041 p{fill:#ccc;color:#ccc;}#mmd-dark-1041 .node rect,#mmd-dark-1041 .node circle,#mmd-dark-1041 .node ellipse,#mmd-dark-1041 .node polygon,#mmd-dark-1041 .node path{fill:#1f2020;stroke:#81B1DB;stroke-width:1px;}#mmd-dark-1041 .flowchart-label text{text-anchor:middle;}#mmd-dark-1041 .node .katex path{fill:#000;stroke:#000;stroke-width:1px;}#mmd-dark-1041 .node .label{text-align:center;}#mmd-dark-1041 .node.clickable{cursor:pointer;}#mmd-dark-1041 .arrowheadPath{fill:lightgrey;}#mmd-dark-1041 .edgePath .path{stroke:lightgrey;stroke-width:2.0px;}#mmd-dark-1041 .flowchart-link{stroke:lightgrey;fill:none;}#mmd-dark-1041 .edgeLabel{background-color:hsl(0, 0%, 34.4117647059%);text-align:center;}#mmd-dark-1041 .edgeLabel rect{opacity:0.5;background-color:hsl(0, 0%, 34.4117647059%);fill:hsl(0, 0%, 34.4117647059%);}#mmd-dark-1041 .labelBkg{background-color:rgba(87.75, 87.75, 87.75, 0.5);}#mmd-dark-1041 .cluster rect{fill:hsl(180, 1.5873015873%, 28.3529411765%);stroke:rgba(255, 255, 255, 0.25);stroke-width:1px;}#mmd-dark-1041 .cluster text{fill:#F9FFFE;}#mmd-dark-1041 .cluster span,#mmd-dark-1041 p{color:#F9FFFE;}#mmd-dark-1041 div.mermaidTooltip{position:absolute;text-align:center;max-width:200px;padding:2px;font-family:"IBM Plex Sans KR","Apple SD Gothic Neo","Malgun Gothic",system-ui,sans-serif;font-size:12px;background:hsl(20, 1.5873015873%, 12.3529411765%);border:1px solid rgba(255, 255, 255, 0.25);border-radius:2px;pointer-events:none;z-index:100;}#mmd-dark-1041 .flowchartTitleText{text-anchor:middle;font-size:18px;fill:#ccc;}#mmd-dark-1041 :root{--mermaid-font-family:"IBM Plex Sans KR","Apple SD Gothic Neo","Malgun Gothic",system-ui,sans-serif;}</style><g><marker orient="auto" markerHeight="12" markerWidth="12" markerUnits="userSpaceOnUse" refY="5" refX="6" viewBox="0 0 10 10" class="marker flowchart" id="mmd-dark-1041_flowchart-pointEnd"><path style="stroke-width: 1; stroke-dasharray: 1, 0;" class="arrowMarkerPath" d="M 0 0 L 10 5 L 0 10 z"></path></marker><marker orient="auto" markerHeight="12" markerWidth="12" markerUnits="userSpaceOnUse" refY="5" refX="4.5" viewBox="0 0 10 10" class="marker flowchart" id="mmd-dark-1041_flowchart-pointStart"><path style="stroke-width: 1; stroke-dasharray: 1, 0;" class="arrowMarkerPath" d="M 0 5 L 10 10 L 10 0 z"></path></marker><marker orient="auto" markerHeight="11" markerWidth="11" markerUnits="userSpaceOnUse" refY="5" refX="11" viewBox="0 0 10 10" class="marker flowchart" id="mmd-dark-1041_flowchart-circleEnd"><circle style="stroke-width: 1; stroke-dasharray: 1, 0;" class="arrowMarkerPath" r="5" cy="5" cx="5"></circle></marker><marker orient="auto" markerHeight="11" markerWidth="11" markerUnits="userSpaceOnUse" refY="5" refX="-1" viewBox="0 0 10 10" class="marker flowchart" id="mmd-dark-1041_flowchart-circleStart"><circle style="stroke-width: 1; stroke-dasharray: 1, 0;" class="arrowMarkerPath" r="5" cy="5" cx="5"></circle></marker><marker orient="auto" markerHeight="11" markerWidth="11" markerUnits="userSpaceOnUse" refY="5.2" refX="12" viewBox="0 0 11 11" class="marker cross flowchart" id="mmd-dark-1041_flowchart-crossEnd"><path style="stroke-width: 2; stroke-dasharray: 1, 0;" class="arrowMarkerPath" d="M 1,1 l 9,9 M 10,1 l -9,9"></path></marker><marker orient="auto" markerHeight="11" markerWidth="11" markerUnits="userSpaceOnUse" refY="5.2" refX="-1" viewBox="0 0 11 11" class="marker cross flowchart" id="mmd-dark-1041_flowchart-crossStart"><path style="stroke-width: 2; stroke-dasharray: 1, 0;" class="arrowMarkerPath" d="M 1,1 l 9,9 M 10,1 l -9,9"></path></marker><g class="root"><g class="clusters"></g><g class="edgePaths"><path marker-end="url(#mmd-dark-1041_flowchart-pointEnd)" style="fill:none;" class="edge-thickness-normal edge-pattern-solid flowchart-link LS-T LE-W" id="L-T-W-0" d="M181.961,35L181.961,39.167C181.961,43.333,181.961,51.667,181.961,59.117C181.961,66.567,181.961,73.133,181.961,76.417L181.961,79.7"></path><path marker-end="url(#mmd-dark-1041_flowchart-pointEnd)" style="fill:none;" class="edge-thickness-normal edge-pattern-solid flowchart-link LS-SE LE-W" id="L-SE-W-0" d="M211.74,510L218.83,505.833C225.92,501.667,240.101,493.333,247.191,482.083C254.281,470.833,254.281,456.667,254.281,442.5C254.281,428.333,254.281,414.167,254.281,400C254.281,385.833,254.281,371.667,254.281,357.5C254.281,343.333,254.281,329.167,254.281,315C254.281,300.833,254.281,286.667,254.281,272.5C254.281,258.333,254.281,244.167,254.281,230C254.281,215.833,254.281,201.667,254.281,187.5C254.281,173.333,254.281,159.167,247.953,148.364C241.624,137.562,228.967,130.124,222.638,126.404L216.309,122.685"></path><path marker-end="url(#mmd-dark-1041_flowchart-pointEnd)" style="fill:none;" class="edge-thickness-normal edge-pattern-solid flowchart-link LS-W LE-SF" id="L-W-SF-0" d="M152.182,120L145.092,124.167C138.002,128.333,123.821,136.667,116.731,144.117C109.641,151.567,109.641,158.133,109.641,161.417L109.641,164.7"></path><path marker-end="url(#mmd-dark-1041_flowchart-pointEnd)" style="fill:none;" class="edge-thickness-normal edge-pattern-solid flowchart-link LS-SF LE-J" id="L-SF-J-0" d="M109.641,205L109.641,209.167C109.641,213.333,109.641,221.667,109.641,229.117C109.641,236.567,109.641,243.133,109.641,246.417L109.641,249.7"></path><path marker-end="url(#mmd-dark-1041_flowchart-pointEnd)" style="fill:none;" class="edge-thickness-normal edge-pattern-solid flowchart-link LS-J LE-C" id="L-J-C-0" d="M109.641,290L109.641,294.167C109.641,298.333,109.641,306.667,109.641,314.117C109.641,321.567,109.641,328.133,109.641,331.417L109.641,334.7"></path><path marker-end="url(#mmd-dark-1041_flowchart-pointEnd)" style="fill:none;" class="edge-thickness-normal edge-pattern-solid flowchart-link LS-C LE-M" id="L-C-M-0" d="M109.641,375L109.641,379.167C109.641,383.333,109.641,391.667,109.641,399.117C109.641,406.567,109.641,413.133,109.641,416.417L109.641,419.7"></path><path marker-end="url(#mmd-dark-1041_flowchart-pointEnd)" style="fill:none;" class="edge-thickness-normal edge-pattern-solid flowchart-link LS-M LE-SE" id="L-M-SE-0" d="M109.641,460L109.641,464.167C109.641,468.333,109.641,476.667,115.969,484.552C122.298,492.438,134.955,499.876,141.284,503.596L147.613,507.315"></path></g><g class="edgeLabels"><g class="edgeLabel"><g transform="translate(0, 0)" class="label"><rect height="0" width="0" ry="0" rx="0"></rect><text style=""><tspan class="row" x="0" dy="1em" xml:space="preserve"></tspan></text></g></g><g class="edgeLabel"><g transform="translate(0, 0)" class="label"><rect height="0" width="0" ry="0" rx="0"></rect><text style=""><tspan class="row" x="0" dy="1em" xml:space="preserve"></tspan></text></g></g><g class="edgeLabel"><g transform="translate(0, 0)" class="label"><rect height="0" width="0" ry="0" rx="0"></rect><text style=""><tspan class="row" x="0" dy="1em" xml:space="preserve"></tspan></text></g></g><g class="edgeLabel"><g transform="translate(0, 0)" class="label"><rect height="0" width="0" ry="0" rx="0"></rect><text style=""><tspan class="row" x="0" dy="1em" xml:space="preserve"></tspan></text></g></g><g class="edgeLabel"><g transform="translate(0, 0)" class="label"><rect height="0" width="0" ry="0" rx="0"></rect><text style=""><tspan class="row" x="0" dy="1em" xml:space="preserve"></tspan></text></g></g><g class="edgeLabel"><g transform="translate(0, 0)" class="label"><rect height="0" width="0" ry="0" rx="0"></rect><text style=""><tspan class="row" x="0" dy="1em" xml:space="preserve"></tspan></text></g></g><g class="edgeLabel"><g transform="translate(0, 0)" class="label"><rect height="0" width="0" ry="0" rx="0"></rect><text style=""><tspan class="row" x="0" dy="1em" xml:space="preserve"></tspan></text></g></g></g><g class="nodes"><g transform="translate(181.9609375, 17.5)" data-id="T" data-node="true" id="flowchart-T-4774" class="node default default flowchart-label"><rect height="35" width="186.796875" y="-17.5" x="-93.3984375" ry="0" rx="0" style="" class="basic label-container"></rect><g transform="translate(0, -10)" style="" class="label"><rect></rect><text style=""><tspan class="row" x="0" dy="1em" xml:space="preserve">작업 계획 / VLA (수 Hz)</tspan></text></g></g><g transform="translate(181.9609375, 102.5)" data-id="W" data-node="true" id="flowchart-W-4775" class="node default default flowchart-label"><rect height="35" width="258.328125" y="-17.5" x="-129.1640625" ry="0" rx="0" style="" class="basic label-container"></rect><g transform="translate(0, -10)" style="" class="label"><rect></rect><text style=""><tspan class="row" x="0" dy="1em" xml:space="preserve">전신 제어·보행 정책 (50~500 Hz)</tspan></text></g></g><g transform="translate(181.9609375, 527.5)" data-id="SE" data-node="true" id="flowchart-SE-4776" class="node default default flowchart-label"><rect height="35" width="219.546875" y="-17.5" x="-109.7734375" ry="0" rx="0" style="" class="basic label-container"></rect><g transform="translate(0, -10)" style="" class="label"><rect></rect><text style=""><tspan class="row" x="0" dy="1em" xml:space="preserve">상태 추정 (IMU·엔코더·접촉)</tspan></text></g></g><g transform="translate(109.640625, 187.5)" data-id="SF" data-node="true" id="flowchart-SF-4779" class="node default default flowchart-label"><rect height="35" width="204.78125" y="-17.5" x="-102.390625" ry="0" rx="0" style="" class="basic label-container"></rect><g transform="translate(0, -10)" style="" class="label"><rect></rect><text style=""><tspan class="row" x="0" dy="1em" xml:space="preserve">안전 필터 (관절·토크 한계)</tspan></text></g></g><g transform="translate(109.640625, 272.5)" data-id="J" data-node="true" id="flowchart-J-4781" class="node default default flowchart-label"><rect height="35" width="219.28125" y="-17.5" x="-109.640625" ry="0" rx="0" style="" class="basic label-container"></rect><g transform="translate(0, -10)" style="" class="label"><rect></rect><text style=""><tspan class="row" x="0" dy="1em" xml:space="preserve">관절 임피던스 루프 (~1 kHz)</tspan></text></g></g><g transform="translate(109.640625, 357.5)" data-id="C" data-node="true" id="flowchart-C-4783" class="node default default flowchart-label"><rect height="35" width="165.6875" y="-17.5" x="-82.84375" ry="0" rx="0" style="" class="basic label-container"></rect><g transform="translate(0, -10)" style="" class="label"><rect></rect><text style=""><tspan class="row" x="0" dy="1em" xml:space="preserve">모터 전류 루프 (kHz)</tspan></text></g></g><g transform="translate(109.640625, 442.5)" data-id="M" data-node="true" id="flowchart-M-4785" class="node default default flowchart-label"><rect height="35" width="131.5" y="-17.5" x="-65.75" ry="0" rx="0" style="" class="basic label-container"></rect><g transform="translate(0, -10)" style="" class="label"><rect></rect><text style=""><tspan class="row" x="0" dy="1em" xml:space="preserve">관절 액추에이터</tspan></text></g></g></g></g></g></svg>