<svg aria-roledescription="flowchart-v2" role="graphics-document document" viewBox="-8 -8 253.7890625 846.6875" xmlns="http://www.w3.org/2000/svg" id="mmd-dark-105" width="254" height="847"><style>#mmd-dark-105{font-family:"IBM Plex Sans KR","Apple SD Gothic Neo","Malgun Gothic",system-ui,sans-serif;font-size:16px;fill:#ccc;}#mmd-dark-105 .error-icon{fill:#a44141;}#mmd-dark-105 .error-text{fill:#ddd;stroke:#ddd;}#mmd-dark-105 .edge-thickness-normal{stroke-width:2px;}#mmd-dark-105 .edge-thickness-thick{stroke-width:3.5px;}#mmd-dark-105 .edge-pattern-solid{stroke-dasharray:0;}#mmd-dark-105 .edge-pattern-dashed{stroke-dasharray:3;}#mmd-dark-105 .edge-pattern-dotted{stroke-dasharray:2;}#mmd-dark-105 .marker{fill:lightgrey;stroke:lightgrey;}#mmd-dark-105 .marker.cross{stroke:lightgrey;}#mmd-dark-105 svg{font-family:"IBM Plex Sans KR","Apple SD Gothic Neo","Malgun Gothic",system-ui,sans-serif;font-size:16px;}#mmd-dark-105 .label{font-family:"IBM Plex Sans KR","Apple SD Gothic Neo","Malgun Gothic",system-ui,sans-serif;color:#ccc;}#mmd-dark-105 .cluster-label text{fill:#F9FFFE;}#mmd-dark-105 .cluster-label span,#mmd-dark-105 p{color:#F9FFFE;}#mmd-dark-105 .label text,#mmd-dark-105 span,#mmd-dark-105 p{fill:#ccc;color:#ccc;}#mmd-dark-105 .node rect,#mmd-dark-105 .node circle,#mmd-dark-105 .node ellipse,#mmd-dark-105 .node polygon,#mmd-dark-105 .node path{fill:#1f2020;stroke:#81B1DB;stroke-width:1px;}#mmd-dark-105 .flowchart-label text{text-anchor:middle;}#mmd-dark-105 .node .katex path{fill:#000;stroke:#000;stroke-width:1px;}#mmd-dark-105 .node .label{text-align:center;}#mmd-dark-105 .node.clickable{cursor:pointer;}#mmd-dark-105 .arrowheadPath{fill:lightgrey;}#mmd-dark-105 .edgePath .path{stroke:lightgrey;stroke-width:2.0px;}#mmd-dark-105 .flowchart-link{stroke:lightgrey;fill:none;}#mmd-dark-105 .edgeLabel{background-color:hsl(0, 0%, 34.4117647059%);text-align:center;}#mmd-dark-105 .edgeLabel rect{opacity:0.5;background-color:hsl(0, 0%, 34.4117647059%);fill:hsl(0, 0%, 34.4117647059%);}#mmd-dark-105 .labelBkg{background-color:rgba(87.75, 87.75, 87.75, 0.5);}#mmd-dark-105 .cluster rect{fill:hsl(180, 1.5873015873%, 28.3529411765%);stroke:rgba(255, 255, 255, 0.25);stroke-width:1px;}#mmd-dark-105 .cluster text{fill:#F9FFFE;}#mmd-dark-105 .cluster span,#mmd-dark-105 p{color:#F9FFFE;}#mmd-dark-105 div.mermaidTooltip{position:absolute;text-align:center;max-width:200px;padding:2px;font-family:"IBM Plex Sans KR","Apple SD Gothic Neo","Malgun Gothic",system-ui,sans-serif;font-size:12px;background:hsl(20, 1.5873015873%, 12.3529411765%);border:1px solid rgba(255, 255, 255, 0.25);border-radius:2px;pointer-events:none;z-index:100;}#mmd-dark-105 .flowchartTitleText{text-anchor:middle;font-size:18px;fill:#ccc;}#mmd-dark-105 :root{--mermaid-font-family:"IBM Plex Sans KR","Apple SD Gothic Neo","Malgun Gothic",system-ui,sans-serif;}</style><g><marker orient="auto" markerHeight="12" markerWidth="12" markerUnits="userSpaceOnUse" refY="5" refX="6" viewBox="0 0 10 10" class="marker flowchart" id="mmd-dark-105_flowchart-pointEnd"><path style="stroke-width: 1; stroke-dasharray: 1, 0;" class="arrowMarkerPath" d="M 0 0 L 10 5 L 0 10 z"></path></marker><marker orient="auto" markerHeight="12" markerWidth="12" markerUnits="userSpaceOnUse" refY="5" refX="4.5" viewBox="0 0 10 10" class="marker flowchart" id="mmd-dark-105_flowchart-pointStart"><path style="stroke-width: 1; stroke-dasharray: 1, 0;" class="arrowMarkerPath" d="M 0 5 L 10 10 L 10 0 z"></path></marker><marker orient="auto" markerHeight="11" markerWidth="11" markerUnits="userSpaceOnUse" refY="5" refX="11" viewBox="0 0 10 10" class="marker flowchart" id="mmd-dark-105_flowchart-circleEnd"><circle style="stroke-width: 1; stroke-dasharray: 1, 0;" class="arrowMarkerPath" r="5" cy="5" cx="5"></circle></marker><marker orient="auto" markerHeight="11" markerWidth="11" markerUnits="userSpaceOnUse" refY="5" refX="-1" viewBox="0 0 10 10" class="marker flowchart" id="mmd-dark-105_flowchart-circleStart"><circle style="stroke-width: 1; stroke-dasharray: 1, 0;" class="arrowMarkerPath" r="5" cy="5" cx="5"></circle></marker><marker orient="auto" markerHeight="11" markerWidth="11" markerUnits="userSpaceOnUse" refY="5.2" refX="12" viewBox="0 0 11 11" class="marker cross flowchart" id="mmd-dark-105_flowchart-crossEnd"><path style="stroke-width: 2; stroke-dasharray: 1, 0;" class="arrowMarkerPath" d="M 1,1 l 9,9 M 10,1 l -9,9"></path></marker><marker orient="auto" markerHeight="11" markerWidth="11" markerUnits="userSpaceOnUse" refY="5.2" refX="-1" viewBox="0 0 11 11" class="marker cross flowchart" id="mmd-dark-105_flowchart-crossStart"><path style="stroke-width: 2; stroke-dasharray: 1, 0;" class="arrowMarkerPath" d="M 1,1 l 9,9 M 10,1 l -9,9"></path></marker><g class="root"><g class="clusters"></g><g class="edgePaths"><path marker-end="url(#mmd-dark-105_flowchart-pointEnd)" style="fill:none;" class="edge-thickness-normal edge-pattern-solid flowchart-link LS-FP LE-PTQ" id="L-FP-PTQ-0" d="M107.844,35L107.844,39.167C107.844,43.333,107.844,51.667,107.844,59.117C107.844,66.567,107.844,73.133,107.844,76.417L107.844,79.7"></path><path marker-end="url(#mmd-dark-105_flowchart-pointEnd)" style="fill:none;" class="edge-thickness-normal edge-pattern-solid flowchart-link LS-PTQ LE-EV" id="L-PTQ-EV-0" d="M107.844,120L107.844,124.167C107.844,128.333,107.844,136.667,107.91,144.2C107.976,151.734,108.108,158.467,108.174,161.834L108.24,165.201"></path><path marker-end="url(#mmd-dark-105_flowchart-pointEnd)" style="fill:none;" class="edge-thickness-normal edge-pattern-solid flowchart-link LS-EV LE-EX" id="L-EV-EX-0" d="M77.335,355.179L72.812,366.097C68.288,377.015,59.242,398.851,54.719,418.519C50.195,438.188,50.195,455.688,50.195,471.521C50.195,487.354,50.195,501.521,50.195,515.688C50.195,529.854,50.195,544.021,50.195,558.188C50.195,572.354,50.195,586.521,50.195,600.688C50.195,614.854,50.195,629.021,50.195,643.188C50.195,657.354,50.195,671.521,55.136,682.247C60.077,692.972,69.959,700.257,74.899,703.9L79.84,707.542"></path><path marker-end="url(#mmd-dark-105_flowchart-pointEnd)" style="fill:none;" class="edge-thickness-normal edge-pattern-solid flowchart-link LS-EV LE-SEN" id="L-EV-SEN-0" d="M139.353,355.179L143.709,366.097C148.066,377.015,156.779,398.851,161.136,414.719C165.492,430.588,165.492,440.488,165.492,445.438L165.492,450.388"></path><path marker-end="url(#mmd-dark-105_flowchart-pointEnd)" style="fill:none;" class="edge-thickness-normal edge-pattern-solid flowchart-link LS-SEN LE-MIX" id="L-SEN-MIX-0" d="M165.492,490.688L165.492,494.854C165.492,499.021,165.492,507.354,165.492,514.804C165.492,522.254,165.492,528.821,165.492,532.104L165.492,535.388"></path><path marker-end="url(#mmd-dark-105_flowchart-pointEnd)" style="fill:none;" class="edge-thickness-normal edge-pattern-solid flowchart-link LS-MIX LE-QAT" id="L-MIX-QAT-0" d="M165.492,575.688L165.492,579.854C165.492,584.021,165.492,592.354,165.492,599.804C165.492,607.254,165.492,613.821,165.492,617.104L165.492,620.388"></path><path marker-end="url(#mmd-dark-105_flowchart-pointEnd)" style="fill:none;" class="edge-thickness-normal edge-pattern-solid flowchart-link LS-QAT LE-EX" id="L-QAT-EX-0" d="M165.492,660.688L165.492,664.854C165.492,669.021,165.492,677.354,160.551,685.163C155.611,692.972,145.729,700.257,140.788,703.9L135.847,707.542"></path><path marker-end="url(#mmd-dark-105_flowchart-pointEnd)" style="fill:none;" class="edge-thickness-normal edge-pattern-solid flowchart-link LS-EX LE-TRT" id="L-EX-TRT-0" d="M107.844,745.688L107.844,749.854C107.844,754.021,107.844,762.354,107.844,769.804C107.844,777.254,107.844,783.821,107.844,787.104L107.844,790.388"></path></g><g class="edgeLabels"><g class="edgeLabel"><g transform="translate(0, 0)" class="label"><rect height="0" width="0" ry="0" rx="0"></rect><text style=""><tspan class="row" x="0" dy="1em" xml:space="preserve"></tspan></text></g></g><g class="edgeLabel"><g transform="translate(0, 0)" class="label"><rect height="0" width="0" ry="0" rx="0"></rect><text style=""><tspan class="row" x="0" dy="1em" xml:space="preserve"></tspan></text></g></g><g transform="translate(50.1953125, 558.1875)" class="edgeLabel"><g transform="translate(-8, -10)" class="label"><rect height="19.000701904296875" width="15.984965324401855" ry="0" rx="0"></rect><text style=""><tspan class="row" x="0" dy="1em" xml:space="preserve">예</tspan></text></g></g><g transform="translate(165.4921875, 420.6875)" class="edgeLabel"><g transform="translate(-24, -10)" class="label"><rect height="19.000701904296875" width="47.954898834228516" ry="0" rx="0"></rect><text style=""><tspan class="row" x="0" dy="1em" xml:space="preserve">아니오</tspan></text></g></g><g class="edgeLabel"><g transform="translate(0, 0)" class="label"><rect height="0" width="0" ry="0" rx="0"></rect><text style=""><tspan class="row" x="0" dy="1em" xml:space="preserve"></tspan></text></g></g><g class="edgeLabel"><g transform="translate(0, 0)" class="label"><rect height="0" width="0" ry="0" rx="0"></rect><text style=""><tspan class="row" x="0" dy="1em" xml:space="preserve"></tspan></text></g></g><g class="edgeLabel"><g transform="translate(0, 0)" class="label"><rect height="0" width="0" ry="0" rx="0"></rect><text style=""><tspan class="row" x="0" dy="1em" xml:space="preserve"></tspan></text></g></g><g class="edgeLabel"><g transform="translate(0, 0)" class="label"><rect height="0" width="0" ry="0" rx="0"></rect><text style=""><tspan class="row" x="0" dy="1em" xml:space="preserve"></tspan></text></g></g></g><g class="nodes"><g transform="translate(107.84375, 17.5)" data-id="FP" data-node="true" id="flowchart-FP-3146" class="node default default flowchart-label"><rect height="35" width="127.3125" y="-17.5" x="-63.65625" ry="0" rx="0" style="" class="basic label-container"></rect><g transform="translate(0, -10)" style="" class="label"><rect></rect><text style=""><tspan class="row" x="0" dy="1em" xml:space="preserve">FP32 학습 모델</tspan></text></g></g><g transform="translate(107.84375, 102.5)" data-id="PTQ" data-node="true" id="flowchart-PTQ-3147" class="node default default flowchart-label"><rect height="35" width="152.421875" y="-17.5" x="-76.2109375" ry="0" rx="0" style="" class="basic label-container"></rect><g transform="translate(0, -10)" style="" class="label"><rect></rect><text style=""><tspan class="row" x="0" dy="1em" xml:space="preserve">PTQ: 캘리브레이션</tspan></text></g></g><g transform="translate(107.84375, 277.84375)" data-id="EV" data-node="true" id="flowchart-EV-3149" class="node default default flowchart-label"><polygon style="" transform="translate(-107.84375,107.84375)" class="label-container" points="107.84375,0 215.6875,-107.84375 107.84375,-215.6875 0,-107.84375"></polygon><g transform="translate(0, -10)" style="" class="label"><rect></rect><text style=""><tspan class="row" x="0" dy="1em" xml:space="preserve">정확도 저하 허용 범위?</tspan></text></g></g><g transform="translate(107.84375, 728.1875)" data-id="EX" data-node="true" id="flowchart-EX-3151" class="node default default flowchart-label"><rect height="35" width="176.40625" y="-17.5" x="-88.203125" ry="0" rx="0" style="" class="basic label-container"></rect><g transform="translate(0, -10)" style="" class="label"><rect></rect><text style=""><tspan class="row" x="0" dy="1em" xml:space="preserve">Q/DQ ONNX 내보내기</tspan></text></g></g><g transform="translate(165.4921875, 473.1875)" data-id="SEN" data-node="true" id="flowchart-SEN-3153" class="node default default flowchart-label"><rect height="35" width="136" y="-17.5" x="-68" ry="0" rx="0" style="" class="basic label-container"></rect><g transform="translate(0, -10)" style="" class="label"><rect></rect><text style=""><tspan class="row" x="0" dy="1em" xml:space="preserve">층별 민감도 분석</tspan></text></g></g><g transform="translate(165.4921875, 558.1875)" data-id="MIX" data-node="true" id="flowchart-MIX-3155" class="node default default flowchart-label"><rect height="35" width="144.59375" y="-17.5" x="-72.296875" ry="0" rx="0" style="" class="basic label-container"></rect><g transform="translate(0, -10)" style="" class="label"><rect></rect><text style=""><tspan class="row" x="0" dy="1em" xml:space="preserve">민감 층 FP16 유지</tspan></text></g></g><g transform="translate(165.4921875, 643.1875)" data-id="QAT" data-node="true" id="flowchart-QAT-3157" class="node default default flowchart-label"><rect height="35" width="115.203125" y="-17.5" x="-57.6015625" ry="0" rx="0" style="" class="basic label-container"></rect><g transform="translate(0, -10)" style="" class="label"><rect></rect><text style=""><tspan class="row" x="0" dy="1em" xml:space="preserve">QAT 미세조정</tspan></text></g></g><g transform="translate(107.84375, 813.1875)" data-id="TRT" data-node="true" id="flowchart-TRT-3161" class="node default default flowchart-label"><rect height="35" width="160.796875" y="-17.5" x="-80.3984375" ry="0" rx="0" style="" class="basic label-container"></rect><g transform="translate(0, -10)" style="" class="label"><rect></rect><text style=""><tspan class="row" x="0" dy="1em" xml:space="preserve">TensorRT 엔진 빌드</tspan></text></g></g></g></g></g></svg>