<svg aria-roledescription="stateDiagram" role="graphics-document document" viewBox="0 0 345.92578125 704" class="statediagram" xmlns="http://www.w3.org/2000/svg" id="mmd-dark-1085" width="346" height="704"><style>#mmd-dark-1085{font-family:"IBM Plex Sans KR","Apple SD Gothic Neo","Malgun Gothic",system-ui,sans-serif;font-size:16px;fill:#ccc;}#mmd-dark-1085 .error-icon{fill:#a44141;}#mmd-dark-1085 .error-text{fill:#ddd;stroke:#ddd;}#mmd-dark-1085 .edge-thickness-normal{stroke-width:2px;}#mmd-dark-1085 .edge-thickness-thick{stroke-width:3.5px;}#mmd-dark-1085 .edge-pattern-solid{stroke-dasharray:0;}#mmd-dark-1085 .edge-pattern-dashed{stroke-dasharray:3;}#mmd-dark-1085 .edge-pattern-dotted{stroke-dasharray:2;}#mmd-dark-1085 .marker{fill:lightgrey;stroke:lightgrey;}#mmd-dark-1085 .marker.cross{stroke:lightgrey;}#mmd-dark-1085 svg{font-family:"IBM Plex Sans KR","Apple SD Gothic Neo","Malgun Gothic",system-ui,sans-serif;font-size:16px;}#mmd-dark-1085 defs #statediagram-barbEnd{fill:lightgrey;stroke:lightgrey;}#mmd-dark-1085 g.stateGroup text{fill:#81B1DB;stroke:none;font-size:10px;}#mmd-dark-1085 g.stateGroup text{fill:#ccc;stroke:none;font-size:10px;}#mmd-dark-1085 g.stateGroup .state-title{font-weight:bolder;fill:#e0dfdf;}#mmd-dark-1085 g.stateGroup rect{fill:#1f2020;stroke:#81B1DB;}#mmd-dark-1085 g.stateGroup line{stroke:lightgrey;stroke-width:1;}#mmd-dark-1085 .transition{stroke:lightgrey;stroke-width:1;fill:none;}#mmd-dark-1085 .stateGroup .composit{fill:#333;border-bottom:1px;}#mmd-dark-1085 .stateGroup .alt-composit{fill:#e0e0e0;border-bottom:1px;}#mmd-dark-1085 .state-note{stroke:hsl(180, 0%, 18.3529411765%);fill:hsl(180, 1.5873015873%, 28.3529411765%);}#mmd-dark-1085 .state-note text{fill:rgb(183.8476190475, 181.5523809523, 181.5523809523);stroke:none;font-size:10px;}#mmd-dark-1085 .stateLabel .box{stroke:none;stroke-width:0;fill:#1f2020;opacity:0.5;}#mmd-dark-1085 .edgeLabel .label rect{fill:#1f2020;opacity:0.5;}#mmd-dark-1085 .edgeLabel .label text{fill:#ccc;}#mmd-dark-1085 .label div .edgeLabel{color:#ccc;}#mmd-dark-1085 .stateLabel text{fill:#e0dfdf;font-size:10px;font-weight:bold;}#mmd-dark-1085 .node circle.state-start{fill:#f4f4f4;stroke:#f4f4f4;}#mmd-dark-1085 .node .fork-join{fill:#f4f4f4;stroke:#f4f4f4;}#mmd-dark-1085 .node circle.state-end{fill:#cccccc;stroke:#333;stroke-width:1.5;}#mmd-dark-1085 .end-state-inner{fill:#333;stroke-width:1.5;}#mmd-dark-1085 .node rect{fill:#1f2020;stroke:#81B1DB;stroke-width:1px;}#mmd-dark-1085 .node polygon{fill:#1f2020;stroke:#81B1DB;stroke-width:1px;}#mmd-dark-1085 #statediagram-barbEnd{fill:lightgrey;}#mmd-dark-1085 .statediagram-cluster rect{fill:#1f2020;stroke:#81B1DB;stroke-width:1px;}#mmd-dark-1085 .cluster-label,#mmd-dark-1085 .nodeLabel{color:#e0dfdf;}#mmd-dark-1085 .statediagram-cluster rect.outer{rx:5px;ry:5px;}#mmd-dark-1085 .statediagram-state .divider{stroke:#81B1DB;}#mmd-dark-1085 .statediagram-state .title-state{rx:5px;ry:5px;}#mmd-dark-1085 .statediagram-cluster.statediagram-cluster .inner{fill:#333;}#mmd-dark-1085 .statediagram-cluster.statediagram-cluster-alt .inner{fill:#555;}#mmd-dark-1085 .statediagram-cluster .inner{rx:0;ry:0;}#mmd-dark-1085 .statediagram-state rect.basic{rx:5px;ry:5px;}#mmd-dark-1085 .statediagram-state rect.divider{stroke-dasharray:10,10;fill:#555;}#mmd-dark-1085 .note-edge{stroke-dasharray:5;}#mmd-dark-1085 .statediagram-note rect{fill:hsl(180, 1.5873015873%, 28.3529411765%);stroke:hsl(180, 0%, 18.3529411765%);stroke-width:1px;rx:0;ry:0;}#mmd-dark-1085 .statediagram-note rect{fill:hsl(180, 1.5873015873%, 28.3529411765%);stroke:hsl(180, 0%, 18.3529411765%);stroke-width:1px;rx:0;ry:0;}#mmd-dark-1085 .statediagram-note text{fill:rgb(183.8476190475, 181.5523809523, 181.5523809523);}#mmd-dark-1085 .statediagram-note .nodeLabel{color:rgb(183.8476190475, 181.5523809523, 181.5523809523);}#mmd-dark-1085 .statediagram .edgeLabel{color:red;}#mmd-dark-1085 #dependencyStart,#mmd-dark-1085 #dependencyEnd{fill:lightgrey;stroke:lightgrey;stroke-width:1;}#mmd-dark-1085 .statediagramTitleText{text-anchor:middle;font-size:18px;fill:#ccc;}#mmd-dark-1085 :root{--mermaid-font-family:"IBM Plex Sans KR","Apple SD Gothic Neo","Malgun Gothic",system-ui,sans-serif;}</style><g><defs><marker orient="auto" markerUnits="strokeWidth" markerHeight="14" markerWidth="20" refY="7" refX="19" id="mmd-dark-1085_statediagram-barbEnd"><path d="M 19,7 L9,13 L14,7 L9,1 Z"></path></marker></defs><g class="root"><g class="clusters"></g><g class="edgePaths"><path marker-end="url(#mmd-dark-1085_statediagram-barbEnd)" style="fill:none" class="edge-thickness-normal transition" id="edge345" d="M171,22L171,26.167C171,30.333,171,38.667,171,47C171,55.333,171,63.667,171,67.833L171,72"></path><path marker-end="url(#mmd-dark-1085_statediagram-barbEnd)" style="fill:none" class="edge-thickness-normal transition" id="edge346" d="M171,107L171,112.833C171,118.667,171,130.333,171,142C171,153.667,171,165.333,171,171.167L171,177"></path><path marker-end="url(#mmd-dark-1085_statediagram-barbEnd)" style="fill:none" class="edge-thickness-normal transition" id="edge347" d="M184.417,212L188.889,217.833C193.361,223.667,202.306,235.333,206.778,247C211.25,258.667,211.25,270.333,211.25,276.167L211.25,282"></path><path marker-end="url(#mmd-dark-1085_statediagram-barbEnd)" style="fill:none" class="edge-thickness-normal transition" id="edge348" d="M136.833,212L125.444,217.833C114.056,223.667,91.278,235.333,79.889,249.917C68.5,264.5,68.5,282,68.5,299.5C68.5,317,68.5,334.5,68.5,352C68.5,369.5,68.5,387,68.5,404.5C68.5,422,68.5,439.5,77.444,454.083C86.389,468.667,104.278,480.333,113.222,486.167L122.167,492"></path><path marker-end="url(#mmd-dark-1085_statediagram-barbEnd)" style="fill:none" class="edge-thickness-normal transition" id="edge349" d="M190.5,317L183.583,322.833C176.667,328.667,162.833,340.333,155.917,354.917C149,369.5,149,387,149,404.5C149,422,149,439.5,149,454.083C149,468.667,149,480.333,149,486.167L149,492"></path><path marker-end="url(#mmd-dark-1085_statediagram-barbEnd)" style="fill:none" class="edge-thickness-normal transition" id="edge350" d="M149,527L149,532.833C149,538.667,149,550.333,149,562C149,573.667,149,585.333,149,591.167L149,597"></path><path marker-end="url(#mmd-dark-1085_statediagram-barbEnd)" style="fill:none" class="edge-thickness-normal transition" id="edge351" d="M231.684,317L238.495,322.833C245.306,328.667,258.928,340.333,265.74,352C272.551,363.667,272.551,375.333,272.551,381.167L272.551,387"></path><path marker-end="url(#mmd-dark-1085_statediagram-barbEnd)" style="fill:none" class="edge-thickness-normal transition" id="edge352" d="M282.926,422L286.384,427.833C289.842,433.667,296.759,445.333,300.217,459.917C303.676,474.5,303.676,492,303.676,509.5C303.676,527,303.676,544.5,303.676,559.083C303.676,573.667,303.676,585.333,303.676,591.167L303.676,597"></path><path marker-end="url(#mmd-dark-1085_statediagram-barbEnd)" style="fill:none" class="edge-thickness-normal transition" id="edge353" d="M262.176,422L258.717,427.833C255.259,433.667,248.342,445.333,234.615,457C220.887,468.667,200.348,480.333,190.078,486.167L179.809,492"></path><path marker-end="url(#mmd-dark-1085_statediagram-barbEnd)" style="fill:none" class="edge-thickness-normal transition" id="edge354" d="M149,632L149,636.167C149,640.333,149,648.667,158.337,657.633C167.675,666.6,186.35,676.2,195.687,681L205.024,685.8"></path><path marker-end="url(#mmd-dark-1085_statediagram-barbEnd)" style="fill:none" class="edge-thickness-normal transition" id="edge355" d="M303.676,632L303.676,636.167C303.676,640.333,303.676,648.667,289.374,657.785C275.072,666.903,246.468,676.807,232.167,681.758L217.865,686.71"></path></g><g class="edgeLabels"><g class="edgeLabel"><g transform="translate(0, 0)" class="label"><rect height="0" width="0" ry="0" rx="0"></rect><text style=""><tspan class="row" x="0" dy="1em" xml:space="preserve"></tspan></text></g></g><g transform="translate(171, 142)" class="edgeLabel"><g transform="translate(-90.6640625, -10)" class="label"><rect height="19.00042152404785" width="181.17068481445312" ry="0" rx="0"></rect><text style=""><tspan class="row" x="0" dy="1em" xml:space="preserve">ODD 이탈 예정 또는 고장</tspan></text></g></g><g transform="translate(211.25, 247)" class="edgeLabel"><g transform="translate(-34.25, -10)" class="label"><rect height="19.00042152404785" width="68.43901824951172" ry="0" rx="0"></rect><text style=""><tspan class="row" x="0" dy="1em" xml:space="preserve">응답 없음</tspan></text></g></g><g transform="translate(68.5, 352)" class="edgeLabel"><g transform="translate(-60.5, -10)" class="label"><rect height="19.00042152404785" width="120.89330291748047" ry="0" rx="0"></rect><text style=""><tspan class="row" x="0" dy="1em" xml:space="preserve">운전자 조작 감지</tspan></text></g></g><g transform="translate(149, 404.5)" class="edgeLabel"><g transform="translate(-60.5, -10)" class="label"><rect height="19.00042152404785" width="120.89330291748047" ry="0" rx="0"></rect><text style=""><tspan class="row" x="0" dy="1em" xml:space="preserve">운전자 조작 감지</tspan></text></g></g><g transform="translate(149, 562)" class="edgeLabel"><g transform="translate(-34.25, -10)" class="label"><rect height="19.00042152404785" width="68.43901824951172" ry="0" rx="0"></rect><text style=""><tspan class="row" x="0" dy="1em" xml:space="preserve">인수 확정</tspan></text></g></g><g transform="translate(272.55078125, 352)" class="edgeLabel"><g transform="translate(-52.5, -10)" class="label"><rect height="19.00042152404785" width="104.91541290283203" ry="0" rx="0"></rect><text style=""><tspan class="row" x="0" dy="1em" xml:space="preserve">전환 시간 초과</tspan></text></g></g><g transform="translate(303.67578125, 509.5)" class="edgeLabel"><g transform="translate(-34.25, -10)" class="label"><rect height="19.00042152404785" width="68.43901824951172" ry="0" rx="0"></rect><text style=""><tspan class="row" x="0" dy="1em" xml:space="preserve">정지 완료</tspan></text></g></g><g transform="translate(241.42578125, 457)" class="edgeLabel"><g transform="translate(-42.25, -10)" class="label"><rect height="19.00042152404785" width="84.42374420166016" ry="0" rx="0"></rect><text style=""><tspan class="row" x="0" dy="1em" xml:space="preserve">운전자 개입</tspan></text></g></g><g class="edgeLabel"><g transform="translate(0, 0)" class="label"><rect height="0" width="0" ry="0" rx="0"></rect><text style=""><tspan class="row" x="0" dy="1em" xml:space="preserve"></tspan></text></g></g><g class="edgeLabel"><g transform="translate(0, 0)" class="label"><rect height="0" width="0" ry="0" rx="0"></rect><text style=""><tspan class="row" x="0" dy="1em" xml:space="preserve"></tspan></text></g></g></g><g class="nodes"><g transform="translate(171, 15)" data-id="root_start" data-node="true" id="state-root_start-345" class="node default"><circle height="14" width="14" r="7" class="state-start"></circle></g><g transform="translate(171, 89.5)" data-id="Auto" data-node="true" id="state-Auto-346" class="node  statediagram-state undefined"><rect height="35" width="50.171875" y="-17.5" x="-25.0859375" style="" class="basic label-container"></rect><g transform="translate(-17.5859375, -10)" style="" class="label"><rect></rect><text style=""><tspan class="row" x="0" dy="1em" xml:space="preserve">Auto</tspan></text></g></g><g transform="translate(171, 194.5)" data-id="Request" data-node="true" id="state-Request-348" class="node  statediagram-state undefined"><rect height="35" width="76.65625" y="-17.5" x="-38.328125" style="" class="basic label-container"></rect><g transform="translate(-30.828125, -10)" style="" class="label"><rect></rect><text style=""><tspan class="row" x="0" dy="1em" xml:space="preserve">Request</tspan></text></g></g><g transform="translate(211.25, 299.5)" data-id="Escalate" data-node="true" id="state-Escalate-351" class="node  statediagram-state undefined"><rect height="35" width="78.609375" y="-17.5" x="-39.3046875" style="" class="basic label-container"></rect><g transform="translate(-31.8046875, -10)" style="" class="label"><rect></rect><text style=""><tspan class="row" x="0" dy="1em" xml:space="preserve">Escalate</tspan></text></g></g><g transform="translate(149, 509.5)" data-id="Confirm" data-node="true" id="state-Confirm-353" class="node  statediagram-state undefined"><rect height="35" width="75.828125" y="-17.5" x="-37.9140625" style="" class="basic label-container"></rect><g transform="translate(-30.4140625, -10)" style="" class="label"><rect></rect><text style=""><tspan class="row" x="0" dy="1em" xml:space="preserve">Confirm</tspan></text></g></g><g transform="translate(149, 614.5)" data-id="Manual" data-node="true" id="state-Manual-354" class="node  statediagram-state undefined"><rect height="35" width="70.21875" y="-17.5" x="-35.109375" style="" class="basic label-container"></rect><g transform="translate(-27.609375, -10)" style="" class="label"><rect></rect><text style=""><tspan class="row" x="0" dy="1em" xml:space="preserve">Manual</tspan></text></g></g><g transform="translate(272.55078125, 404.5)" data-id="MRM" data-node="true" id="state-MRM-353" class="node  statediagram-state undefined"><rect height="35" width="54.203125" y="-17.5" x="-27.1015625" style="" class="basic label-container"></rect><g transform="translate(-19.6015625, -10)" style="" class="label"><rect></rect><text style=""><tspan class="row" x="0" dy="1em" xml:space="preserve">MRM</tspan></text></g></g><g transform="translate(303.67578125, 614.5)" data-id="MRC" data-node="true" id="state-MRC-355" class="node  statediagram-state undefined"><rect height="35" width="51.4375" y="-17.5" x="-25.71875" style="" class="basic label-container"></rect><g transform="translate(-18.21875, -10)" style="" class="label"><rect></rect><text style=""><tspan class="row" x="0" dy="1em" xml:space="preserve">MRC</tspan></text></g></g><g transform="translate(211.25, 689)" data-id="root_end" data-node="true" id="state-root_end-355" class="node default"><circle height="14" width="14" r="7" class="state-start"></circle><circle height="10" width="10" r="5" class="state-end"></circle></g></g></g></g></svg>