<svg aria-roledescription="flowchart-v2" role="graphics-document document" viewBox="-8 -8 1282.484375 152" xmlns="http://www.w3.org/2000/svg" id="mmd-dark-1404" width="1283" height="152"><style>#mmd-dark-1404{font-family:"IBM Plex Sans KR","Apple SD Gothic Neo","Malgun Gothic",system-ui,sans-serif;font-size:16px;fill:#ccc;}#mmd-dark-1404 .error-icon{fill:#a44141;}#mmd-dark-1404 .error-text{fill:#ddd;stroke:#ddd;}#mmd-dark-1404 .edge-thickness-normal{stroke-width:2px;}#mmd-dark-1404 .edge-thickness-thick{stroke-width:3.5px;}#mmd-dark-1404 .edge-pattern-solid{stroke-dasharray:0;}#mmd-dark-1404 .edge-pattern-dashed{stroke-dasharray:3;}#mmd-dark-1404 .edge-pattern-dotted{stroke-dasharray:2;}#mmd-dark-1404 .marker{fill:lightgrey;stroke:lightgrey;}#mmd-dark-1404 .marker.cross{stroke:lightgrey;}#mmd-dark-1404 svg{font-family:"IBM Plex Sans KR","Apple SD Gothic Neo","Malgun Gothic",system-ui,sans-serif;font-size:16px;}#mmd-dark-1404 .label{font-family:"IBM Plex Sans KR","Apple SD Gothic Neo","Malgun Gothic",system-ui,sans-serif;color:#ccc;}#mmd-dark-1404 .cluster-label text{fill:#F9FFFE;}#mmd-dark-1404 .cluster-label span,#mmd-dark-1404 p{color:#F9FFFE;}#mmd-dark-1404 .label text,#mmd-dark-1404 span,#mmd-dark-1404 p{fill:#ccc;color:#ccc;}#mmd-dark-1404 .node rect,#mmd-dark-1404 .node circle,#mmd-dark-1404 .node ellipse,#mmd-dark-1404 .node polygon,#mmd-dark-1404 .node path{fill:#1f2020;stroke:#81B1DB;stroke-width:1px;}#mmd-dark-1404 .flowchart-label text{text-anchor:middle;}#mmd-dark-1404 .node .katex path{fill:#000;stroke:#000;stroke-width:1px;}#mmd-dark-1404 .node .label{text-align:center;}#mmd-dark-1404 .node.clickable{cursor:pointer;}#mmd-dark-1404 .arrowheadPath{fill:lightgrey;}#mmd-dark-1404 .edgePath .path{stroke:lightgrey;stroke-width:2.0px;}#mmd-dark-1404 .flowchart-link{stroke:lightgrey;fill:none;}#mmd-dark-1404 .edgeLabel{background-color:hsl(0, 0%, 34.4117647059%);text-align:center;}#mmd-dark-1404 .edgeLabel rect{opacity:0.5;background-color:hsl(0, 0%, 34.4117647059%);fill:hsl(0, 0%, 34.4117647059%);}#mmd-dark-1404 .labelBkg{background-color:rgba(87.75, 87.75, 87.75, 0.5);}#mmd-dark-1404 .cluster rect{fill:hsl(180, 1.5873015873%, 28.3529411765%);stroke:rgba(255, 255, 255, 0.25);stroke-width:1px;}#mmd-dark-1404 .cluster text{fill:#F9FFFE;}#mmd-dark-1404 .cluster span,#mmd-dark-1404 p{color:#F9FFFE;}#mmd-dark-1404 div.mermaidTooltip{position:absolute;text-align:center;max-width:200px;padding:2px;font-family:"IBM Plex Sans KR","Apple SD Gothic Neo","Malgun Gothic",system-ui,sans-serif;font-size:12px;background:hsl(20, 1.5873015873%, 12.3529411765%);border:1px solid rgba(255, 255, 255, 0.25);border-radius:2px;pointer-events:none;z-index:100;}#mmd-dark-1404 .flowchartTitleText{text-anchor:middle;font-size:18px;fill:#ccc;}#mmd-dark-1404 :root{--mermaid-font-family:"IBM Plex Sans KR","Apple SD Gothic Neo","Malgun Gothic",system-ui,sans-serif;}</style><g><marker orient="auto" markerHeight="12" markerWidth="12" markerUnits="userSpaceOnUse" refY="5" refX="6" viewBox="0 0 10 10" class="marker flowchart" id="mmd-dark-1404_flowchart-pointEnd"><path style="stroke-width: 1; stroke-dasharray: 1, 0;" class="arrowMarkerPath" d="M 0 0 L 10 5 L 0 10 z"></path></marker><marker orient="auto" markerHeight="12" markerWidth="12" markerUnits="userSpaceOnUse" refY="5" refX="4.5" viewBox="0 0 10 10" class="marker flowchart" id="mmd-dark-1404_flowchart-pointStart"><path style="stroke-width: 1; stroke-dasharray: 1, 0;" class="arrowMarkerPath" d="M 0 5 L 10 10 L 10 0 z"></path></marker><marker orient="auto" markerHeight="11" markerWidth="11" markerUnits="userSpaceOnUse" refY="5" refX="11" viewBox="0 0 10 10" class="marker flowchart" id="mmd-dark-1404_flowchart-circleEnd"><circle style="stroke-width: 1; stroke-dasharray: 1, 0;" class="arrowMarkerPath" r="5" cy="5" cx="5"></circle></marker><marker orient="auto" markerHeight="11" markerWidth="11" markerUnits="userSpaceOnUse" refY="5" refX="-1" viewBox="0 0 10 10" class="marker flowchart" id="mmd-dark-1404_flowchart-circleStart"><circle style="stroke-width: 1; stroke-dasharray: 1, 0;" class="arrowMarkerPath" r="5" cy="5" cx="5"></circle></marker><marker orient="auto" markerHeight="11" markerWidth="11" markerUnits="userSpaceOnUse" refY="5.2" refX="12" viewBox="0 0 11 11" class="marker cross flowchart" id="mmd-dark-1404_flowchart-crossEnd"><path style="stroke-width: 2; stroke-dasharray: 1, 0;" class="arrowMarkerPath" d="M 1,1 l 9,9 M 10,1 l -9,9"></path></marker><marker orient="auto" markerHeight="11" markerWidth="11" markerUnits="userSpaceOnUse" refY="5.2" refX="-1" viewBox="0 0 11 11" class="marker cross flowchart" id="mmd-dark-1404_flowchart-crossStart"><path style="stroke-width: 2; stroke-dasharray: 1, 0;" class="arrowMarkerPath" d="M 1,1 l 9,9 M 10,1 l -9,9"></path></marker><g class="root"><g class="clusters"></g><g class="edgePaths"><path marker-end="url(#mmd-dark-1404_flowchart-pointEnd)" style="fill:none;" class="edge-thickness-normal edge-pattern-solid flowchart-link LS-A LE-T" id="L-A-T-0" d="M83.5,72L87.667,72C91.833,72,100.167,72,107.617,72C115.067,72,121.633,72,124.917,72L128.2,72"></path><path marker-end="url(#mmd-dark-1404_flowchart-pointEnd)" style="fill:none;" class="edge-thickness-normal edge-pattern-solid flowchart-link LS-T LE-I" id="L-T-I-0" d="M222.392,54.5L230.994,49.667C239.595,44.833,256.797,35.167,279.565,30.333C302.333,25.5,330.667,25.5,359,25.5C387.333,25.5,415.667,25.5,433.117,25.5C450.567,25.5,457.133,25.5,460.417,25.5L463.7,25.5"></path><path marker-end="url(#mmd-dark-1404_flowchart-pointEnd)" style="fill:none;" class="edge-thickness-normal edge-pattern-solid flowchart-link LS-T LE-AP" id="L-T-AP-0" d="M222.392,89.5L230.994,94.333C239.595,99.167,256.797,108.833,268.682,113.667C280.567,118.5,287.133,118.5,290.417,118.5L293.7,118.5"></path><path marker-end="url(#mmd-dark-1404_flowchart-pointEnd)" style="fill:none;" class="edge-thickness-normal edge-pattern-solid flowchart-link LS-AP LE-F" id="L-AP-F-0" d="M419,118.5L423.167,118.5C427.333,118.5,435.667,118.5,448.852,118.5C462.038,118.5,480.076,118.5,489.095,118.5L498.114,118.5"></path><path marker-end="url(#mmd-dark-1404_flowchart-pointEnd)" style="fill:none;" class="edge-thickness-normal edge-pattern-solid flowchart-link LS-I LE-R" id="L-I-R-0" d="M673.828,25.5L677.995,25.5C682.161,25.5,690.495,25.5,701.647,29.865C712.8,34.23,726.771,42.961,733.757,47.326L740.742,51.691"></path><path marker-end="url(#mmd-dark-1404_flowchart-pointEnd)" style="fill:none;" class="edge-thickness-normal edge-pattern-solid flowchart-link LS-F LE-R" id="L-F-R-0" d="M639.414,118.5L649.316,118.5C659.219,118.5,679.023,118.5,695.911,114.135C712.8,109.77,726.771,101.039,733.757,96.674L740.742,92.309"></path><path marker-end="url(#mmd-dark-1404_flowchart-pointEnd)" style="fill:none;" class="edge-thickness-normal edge-pattern-solid flowchart-link LS-R LE-D" id="L-R-D-0" d="M822.656,72L826.823,72C830.99,72,839.323,72,846.856,72.066C854.39,72.132,861.124,72.264,864.49,72.33L867.857,72.396"></path><path marker-end="url(#mmd-dark-1404_flowchart-pointEnd)" style="fill:none;" class="edge-thickness-normal edge-pattern-solid flowchart-link LS-D LE-G" id="L-D-G-0" d="M977.617,58.46L992.808,53.634C1008,48.807,1038.383,39.153,1065.626,34.327C1092.869,29.5,1116.972,29.5,1129.023,29.5L1141.075,29.5"></path><path marker-end="url(#mmd-dark-1404_flowchart-pointEnd)" style="fill:none;" class="edge-thickness-normal edge-pattern-solid flowchart-link LS-D LE-J" id="L-D-J-0" d="M977.617,86.54L992.808,91.2C1008,95.86,1038.383,105.18,1068.676,109.84C1098.97,114.5,1129.175,114.5,1144.277,114.5L1159.38,114.5"></path></g><g class="edgeLabels"><g class="edgeLabel"><g transform="translate(0, 0)" class="label"><rect height="0" width="0" ry="0" rx="0"></rect><text style=""><tspan class="row" x="0" dy="1em" xml:space="preserve"></tspan></text></g></g><g class="edgeLabel"><g transform="translate(0, 0)" class="label"><rect height="0" width="0" ry="0" rx="0"></rect><text style=""><tspan class="row" x="0" dy="1em" xml:space="preserve"></tspan></text></g></g><g class="edgeLabel"><g transform="translate(0, 0)" class="label"><rect height="0" width="0" ry="0" rx="0"></rect><text style=""><tspan class="row" x="0" dy="1em" xml:space="preserve"></tspan></text></g></g><g class="edgeLabel"><g transform="translate(0, 0)" class="label"><rect height="0" width="0" ry="0" rx="0"></rect><text style=""><tspan class="row" x="0" dy="1em" xml:space="preserve"></tspan></text></g></g><g class="edgeLabel"><g transform="translate(0, 0)" class="label"><rect height="0" width="0" ry="0" rx="0"></rect><text style=""><tspan class="row" x="0" dy="1em" xml:space="preserve"></tspan></text></g></g><g class="edgeLabel"><g transform="translate(0, 0)" class="label"><rect height="0" width="0" ry="0" rx="0"></rect><text style=""><tspan class="row" x="0" dy="1em" xml:space="preserve"></tspan></text></g></g><g class="edgeLabel"><g transform="translate(0, 0)" class="label"><rect height="0" width="0" ry="0" rx="0"></rect><text style=""><tspan class="row" x="0" dy="1em" xml:space="preserve"></tspan></text></g></g><g transform="translate(1068.765625, 29.5)" class="edgeLabel"><g transform="translate(-16, -10)" class="label"><rect height="19.279441833496094" width="31.963285446166992" ry="0" rx="0"></rect><text style=""><tspan class="row" x="0" dy="1em" xml:space="preserve">감소</tspan></text></g></g><g transform="translate(1068.765625, 114.5)" class="edgeLabel"><g transform="translate(-52.609375, -10)" class="label"><rect height="19.279441833496094" width="105.10149383544922" ry="0" rx="0"></rect><text style=""><tspan class="row" x="0" dy="1em" xml:space="preserve">회피·공유·보유</tspan></text></g></g></g><g class="nodes"><g transform="translate(41.75, 72)" data-id="A" data-node="true" id="flowchart-A-5550" class="node default default flowchart-label"><rect height="35" width="83.5" y="-17.5" x="-41.75" ry="0" rx="0" style="" class="basic label-container"></rect><g transform="translate(0, -10)" style="" class="label"><rect></rect><text style=""><tspan class="row" x="0" dy="1em" xml:space="preserve">자산 식별</tspan></text></g></g><g transform="translate(191.25, 72)" data-id="T" data-node="true" id="flowchart-T-5551" class="node default default flowchart-label"><rect height="35" width="115.5" y="-17.5" x="-57.75" ry="0" rx="0" style="" class="basic label-container"></rect><g transform="translate(0, -10)" style="" class="label"><rect></rect><text style=""><tspan class="row" x="0" dy="1em" xml:space="preserve">위협 시나리오</tspan></text></g></g><g transform="translate(571.4140625, 25.5)" data-id="I" data-node="true" id="flowchart-I-5553" class="node default default flowchart-label"><rect height="51" width="204.828125" y="-25.5" x="-102.4140625" ry="0" rx="0" style="" class="basic label-container"></rect><g transform="translate(0, -18)" style="" class="label"><rect></rect><text style=""><tspan class="row" x="0" dy="1em" xml:space="preserve">영향 평가</tspan><tspan class="row" x="0" dy="1em" xml:space="preserve">안전·재무·운영·프라이버시</tspan></text></g></g><g transform="translate(359, 118.5)" data-id="AP" data-node="true" id="flowchart-AP-5555" class="node default default flowchart-label"><rect height="35" width="120" y="-17.5" x="-60" ry="0" rx="0" style="" class="basic label-container"></rect><g transform="translate(0, -10)" style="" class="label"><rect></rect><text style=""><tspan class="row" x="0" dy="1em" xml:space="preserve">공격 경로 분석</tspan></text></g></g><g transform="translate(571.4140625, 118.5)" data-id="F" data-node="true" id="flowchart-F-5557" class="node default default flowchart-label"><rect height="35" width="136" y="-17.5" x="-68" ry="0" rx="0" style="" class="basic label-container"></rect><g transform="translate(0, -10)" style="" class="label"><rect></rect><text style=""><tspan class="row" x="0" dy="1em" xml:space="preserve">공격 실현 가능성</tspan></text></g></g><g transform="translate(773.2421875, 72)" data-id="R" data-node="true" id="flowchart-R-5559" class="node default default flowchart-label"><rect height="35" width="98.828125" y="-17.5" x="-49.4140625" ry="0" rx="0" style="" class="basic label-container"></rect><g transform="translate(0, -10)" style="" class="label"><rect></rect><text style=""><tspan class="row" x="0" dy="1em" xml:space="preserve">위험 값 1~5</tspan></text></g></g><g transform="translate(931.90625, 72)" data-id="D" data-node="true" id="flowchart-D-5563" class="node default default flowchart-label"><polygon style="" transform="translate(-59.25,59.25)" class="label-container" points="59.25,0 118.5,-59.25 59.25,-118.5 0,-59.25"></polygon><g transform="translate(0, -10)" style="" class="label"><rect></rect><text style=""><tspan class="row" x="0" dy="1em" xml:space="preserve">위험 처리</tspan></text></g></g><g transform="translate(1206.4296875, 29.5)" data-id="G" data-node="true" id="flowchart-G-5565" class="node default default flowchart-label"><rect height="35" width="120.109375" y="-17.5" x="-60.0546875" ry="0" rx="0" style="" class="basic label-container"></rect><g transform="translate(0, -10)" style="" class="label"><rect></rect><text style=""><tspan class="row" x="0" dy="1em" xml:space="preserve">보안 목표·통제</tspan></text></g></g><g transform="translate(1206.4296875, 114.5)" data-id="J" data-node="true" id="flowchart-J-5567" class="node default default flowchart-label"><rect height="35" width="83.5" y="-17.5" x="-41.75" ry="0" rx="0" style="" class="basic label-container"></rect><g transform="translate(0, -10)" style="" class="label"><rect></rect><text style=""><tspan class="row" x="0" dy="1em" xml:space="preserve">근거 기록</tspan></text></g></g></g></g></g></svg>