<svg aria-roledescription="stateDiagram" role="graphics-document document" viewBox="0 0 329.7109375 640" class="statediagram" xmlns="http://www.w3.org/2000/svg" id="mmd-dark-1470" width="330" height="640"><style>#mmd-dark-1470{font-family:"IBM Plex Sans KR","Apple SD Gothic Neo","Malgun Gothic",system-ui,sans-serif;font-size:16px;fill:#ccc;}#mmd-dark-1470 .error-icon{fill:#a44141;}#mmd-dark-1470 .error-text{fill:#ddd;stroke:#ddd;}#mmd-dark-1470 .edge-thickness-normal{stroke-width:2px;}#mmd-dark-1470 .edge-thickness-thick{stroke-width:3.5px;}#mmd-dark-1470 .edge-pattern-solid{stroke-dasharray:0;}#mmd-dark-1470 .edge-pattern-dashed{stroke-dasharray:3;}#mmd-dark-1470 .edge-pattern-dotted{stroke-dasharray:2;}#mmd-dark-1470 .marker{fill:lightgrey;stroke:lightgrey;}#mmd-dark-1470 .marker.cross{stroke:lightgrey;}#mmd-dark-1470 svg{font-family:"IBM Plex Sans KR","Apple SD Gothic Neo","Malgun Gothic",system-ui,sans-serif;font-size:16px;}#mmd-dark-1470 defs #statediagram-barbEnd{fill:lightgrey;stroke:lightgrey;}#mmd-dark-1470 g.stateGroup text{fill:#81B1DB;stroke:none;font-size:10px;}#mmd-dark-1470 g.stateGroup text{fill:#ccc;stroke:none;font-size:10px;}#mmd-dark-1470 g.stateGroup .state-title{font-weight:bolder;fill:#e0dfdf;}#mmd-dark-1470 g.stateGroup rect{fill:#1f2020;stroke:#81B1DB;}#mmd-dark-1470 g.stateGroup line{stroke:lightgrey;stroke-width:1;}#mmd-dark-1470 .transition{stroke:lightgrey;stroke-width:1;fill:none;}#mmd-dark-1470 .stateGroup .composit{fill:#333;border-bottom:1px;}#mmd-dark-1470 .stateGroup .alt-composit{fill:#e0e0e0;border-bottom:1px;}#mmd-dark-1470 .state-note{stroke:hsl(180, 0%, 18.3529411765%);fill:hsl(180, 1.5873015873%, 28.3529411765%);}#mmd-dark-1470 .state-note text{fill:rgb(183.8476190475, 181.5523809523, 181.5523809523);stroke:none;font-size:10px;}#mmd-dark-1470 .stateLabel .box{stroke:none;stroke-width:0;fill:#1f2020;opacity:0.5;}#mmd-dark-1470 .edgeLabel .label rect{fill:#1f2020;opacity:0.5;}#mmd-dark-1470 .edgeLabel .label text{fill:#ccc;}#mmd-dark-1470 .label div .edgeLabel{color:#ccc;}#mmd-dark-1470 .stateLabel text{fill:#e0dfdf;font-size:10px;font-weight:bold;}#mmd-dark-1470 .node circle.state-start{fill:#f4f4f4;stroke:#f4f4f4;}#mmd-dark-1470 .node .fork-join{fill:#f4f4f4;stroke:#f4f4f4;}#mmd-dark-1470 .node circle.state-end{fill:#cccccc;stroke:#333;stroke-width:1.5;}#mmd-dark-1470 .end-state-inner{fill:#333;stroke-width:1.5;}#mmd-dark-1470 .node rect{fill:#1f2020;stroke:#81B1DB;stroke-width:1px;}#mmd-dark-1470 .node polygon{fill:#1f2020;stroke:#81B1DB;stroke-width:1px;}#mmd-dark-1470 #statediagram-barbEnd{fill:lightgrey;}#mmd-dark-1470 .statediagram-cluster rect{fill:#1f2020;stroke:#81B1DB;stroke-width:1px;}#mmd-dark-1470 .cluster-label,#mmd-dark-1470 .nodeLabel{color:#e0dfdf;}#mmd-dark-1470 .statediagram-cluster rect.outer{rx:5px;ry:5px;}#mmd-dark-1470 .statediagram-state .divider{stroke:#81B1DB;}#mmd-dark-1470 .statediagram-state .title-state{rx:5px;ry:5px;}#mmd-dark-1470 .statediagram-cluster.statediagram-cluster .inner{fill:#333;}#mmd-dark-1470 .statediagram-cluster.statediagram-cluster-alt .inner{fill:#555;}#mmd-dark-1470 .statediagram-cluster .inner{rx:0;ry:0;}#mmd-dark-1470 .statediagram-state rect.basic{rx:5px;ry:5px;}#mmd-dark-1470 .statediagram-state rect.divider{stroke-dasharray:10,10;fill:#555;}#mmd-dark-1470 .note-edge{stroke-dasharray:5;}#mmd-dark-1470 .statediagram-note rect{fill:hsl(180, 1.5873015873%, 28.3529411765%);stroke:hsl(180, 0%, 18.3529411765%);stroke-width:1px;rx:0;ry:0;}#mmd-dark-1470 .statediagram-note rect{fill:hsl(180, 1.5873015873%, 28.3529411765%);stroke:hsl(180, 0%, 18.3529411765%);stroke-width:1px;rx:0;ry:0;}#mmd-dark-1470 .statediagram-note text{fill:rgb(183.8476190475, 181.5523809523, 181.5523809523);}#mmd-dark-1470 .statediagram-note .nodeLabel{color:rgb(183.8476190475, 181.5523809523, 181.5523809523);}#mmd-dark-1470 .statediagram .edgeLabel{color:red;}#mmd-dark-1470 #dependencyStart,#mmd-dark-1470 #dependencyEnd{fill:lightgrey;stroke:lightgrey;stroke-width:1;}#mmd-dark-1470 .statediagramTitleText{text-anchor:middle;font-size:18px;fill:#ccc;}#mmd-dark-1470 :root{--mermaid-font-family:"IBM Plex Sans KR","Apple SD Gothic Neo","Malgun Gothic",system-ui,sans-serif;}</style><g><defs><marker orient="auto" markerUnits="strokeWidth" markerHeight="14" markerWidth="20" refY="7" refX="19" id="mmd-dark-1470_statediagram-barbEnd"><path d="M 19,7 L9,13 L14,7 L9,1 Z"></path></marker></defs><g class="root"><g class="clusters"></g><g class="edgePaths"><path marker-end="url(#mmd-dark-1470_statediagram-barbEnd)" style="fill:none" class="edge-thickness-normal transition" id="edge438" d="M180.711,22L180.711,26.167C180.711,30.333,180.711,38.667,180.711,47C180.711,55.333,180.711,63.667,180.711,67.833L180.711,72"></path><path marker-end="url(#mmd-dark-1470_statediagram-barbEnd)" style="fill:none" class="edge-thickness-normal transition" id="edge439" d="M145.602,105.049L131.695,111.207C117.789,117.366,89.977,129.683,76.07,141.675C62.164,153.667,62.164,165.333,62.164,171.167L62.164,177"></path><path marker-end="url(#mmd-dark-1470_statediagram-barbEnd)" style="fill:none" class="edge-thickness-normal transition" id="edge440" d="M62.164,212L62.164,217.833C62.164,223.667,62.164,235.333,68.75,247C75.336,258.667,88.508,270.333,95.094,276.167L101.68,282"></path><path marker-end="url(#mmd-dark-1470_statediagram-barbEnd)" style="fill:none" class="edge-thickness-normal transition" id="edge441" d="M121.438,317L121.438,322.833C121.438,328.667,121.438,340.333,125.91,352C130.382,363.667,139.326,375.333,143.799,381.167L148.271,387"></path><path marker-end="url(#mmd-dark-1470_statediagram-barbEnd)" style="fill:none" class="edge-thickness-normal transition" id="edge442" d="M194.862,387L205.92,381.167C216.978,375.333,239.095,363.667,250.153,349.083C261.211,334.5,261.211,317,261.211,299.5C261.211,282,261.211,264.5,261.211,247C261.211,229.5,261.211,212,261.211,194.5C261.211,177,261.211,159.5,252.266,144.917C243.322,130.333,225.433,118.667,216.489,112.833L207.544,107"></path><path marker-end="url(#mmd-dark-1470_statediagram-barbEnd)" style="fill:none" class="edge-thickness-normal transition" id="edge443" d="M161.688,422L161.688,427.833C161.688,433.667,161.688,445.333,161.688,457C161.688,468.667,161.688,480.333,161.688,486.167L161.688,492"></path><path marker-end="url(#mmd-dark-1470_statediagram-barbEnd)" style="fill:none" class="edge-thickness-normal transition" id="edge444" d="M161.688,527L161.688,532.833C161.688,538.667,161.688,550.333,161.688,562C161.688,573.667,161.688,585.333,161.688,591.167L161.688,597"></path><path marker-end="url(#mmd-dark-1470_statediagram-barbEnd)" style="fill:none" class="edge-thickness-normal transition" id="edge445" d="M141.195,282L147.781,276.167C154.367,270.333,167.539,258.667,174.125,244.083C180.711,229.5,180.711,212,180.711,194.5C180.711,177,180.711,159.5,180.711,144.917C180.711,130.333,180.711,118.667,180.711,112.833L180.711,107"></path></g><g class="edgeLabels"><g class="edgeLabel"><g transform="translate(0, 0)" class="label"><rect height="0" width="0" ry="0" rx="0"></rect><text style=""><tspan class="row" x="0" dy="1em" xml:space="preserve"></tspan></text></g></g><g transform="translate(62.1640625, 142)" class="edgeLabel"><g transform="translate(-54.1640625, -10)" class="label"><rect height="19.000463485717773" width="108.23702239990234" ry="0" rx="0"></rect><text style=""><tspan class="row" x="0" dy="1em" xml:space="preserve">ODD 조건 충족</tspan></text></g></g><g transform="translate(62.1640625, 247)" class="edgeLabel"><g transform="translate(-50.25, -10)" class="label"><rect height="19.000463485717773" width="100.41993713378906" ry="0" rx="0"></rect><text style=""><tspan class="row" x="0" dy="1em" xml:space="preserve">운전자 활성화</tspan></text></g></g><g transform="translate(121.4375, 352)" class="edgeLabel"><g transform="translate(-54.1640625, -10)" class="label"><rect height="19.000463485717773" width="108.24060821533203" ry="0" rx="0"></rect><text style=""><tspan class="row" x="0" dy="1em" xml:space="preserve">ODD 이탈 예상</tspan></text></g></g><g transform="translate(261.2109375, 247)" class="edgeLabel"><g transform="translate(-60.5, -10)" class="label"><rect height="19.000463485717773" width="120.8935775756836" ry="0" rx="0"></rect><text style=""><tspan class="row" x="0" dy="1em" xml:space="preserve">운전자 인계 완료</tspan></text></g></g><g transform="translate(161.6875, 457)" class="edgeLabel"><g transform="translate(-34.25, -10)" class="label"><rect height="19.000463485717773" width="68.43917083740234" ry="0" rx="0"></rect><text style=""><tspan class="row" x="0" dy="1em" xml:space="preserve">응답 없음</tspan></text></g></g><g transform="translate(161.6875, 562)" class="edgeLabel"><g transform="translate(-70.75, -10)" class="label"><rect height="19.000463485717773" width="141.38088989257812" ry="0" rx="0"></rect><text style=""><tspan class="row" x="0" dy="1em" xml:space="preserve">최소 위험 상태 정차</tspan></text></g></g><g transform="translate(180.7109375, 194.5)" class="edgeLabel"><g transform="translate(-42.25, -10)" class="label"><rect height="19.000463485717773" width="84.42393493652344" ry="0" rx="0"></rect><text style=""><tspan class="row" x="0" dy="1em" xml:space="preserve">운전자 개입</tspan></text></g></g></g><g class="nodes"><g transform="translate(180.7109375, 15)" data-id="root_start" data-node="true" id="state-root_start-438" class="node default"><circle height="14" width="14" r="7" class="state-start"></circle></g><g transform="translate(180.7109375, 89.5)" data-id="Manual" data-node="true" id="state-Manual-445" class="node  statediagram-state undefined"><rect height="35" width="70.21875" y="-17.5" x="-35.109375" style="" class="basic label-container"></rect><g transform="translate(-27.609375, -10)" style="" class="label"><rect></rect><text style=""><tspan class="row" x="0" dy="1em" xml:space="preserve">Manual</tspan></text></g></g><g transform="translate(62.1640625, 194.5)" data-id="Available" data-node="true" id="state-Available-440" class="node  statediagram-state undefined"><rect height="35" width="82.59375" y="-17.5" x="-41.296875" style="" class="basic label-container"></rect><g transform="translate(-33.796875, -10)" style="" class="label"><rect></rect><text style=""><tspan class="row" x="0" dy="1em" xml:space="preserve">Available</tspan></text></g></g><g transform="translate(121.4375, 299.5)" data-id="Engaged" data-node="true" id="state-Engaged-445" class="node  statediagram-state undefined"><rect height="35" width="81.8125" y="-17.5" x="-40.90625" style="" class="basic label-container"></rect><g transform="translate(-33.40625, -10)" style="" class="label"><rect></rect><text style=""><tspan class="row" x="0" dy="1em" xml:space="preserve">Engaged</tspan></text></g></g><g transform="translate(161.6875, 404.5)" data-id="TakeoverRequest" data-node="true" id="state-TakeoverRequest-443" class="node  statediagram-state undefined"><rect height="35" width="146.109375" y="-17.5" x="-73.0546875" style="" class="basic label-container"></rect><g transform="translate(-65.5546875, -10)" style="" class="label"><rect></rect><text style=""><tspan class="row" x="0" dy="1em" xml:space="preserve">TakeoverRequest</tspan></text></g></g><g transform="translate(161.6875, 509.5)" data-id="MRM" data-node="true" id="state-MRM-444" class="node  statediagram-state undefined"><rect height="35" width="54.203125" y="-17.5" x="-27.1015625" style="" class="basic label-container"></rect><g transform="translate(-19.6015625, -10)" style="" class="label"><rect></rect><text style=""><tspan class="row" x="0" dy="1em" xml:space="preserve">MRM</tspan></text></g></g><g transform="translate(161.6875, 614.5)" data-id="Stopped" data-node="true" id="state-Stopped-444" class="node  statediagram-state undefined"><rect height="35" width="78.65625" y="-17.5" x="-39.328125" style="" class="basic label-container"></rect><g transform="translate(-31.828125, -10)" style="" class="label"><rect></rect><text style=""><tspan class="row" x="0" dy="1em" xml:space="preserve">Stopped</tspan></text></g></g></g></g></g></svg>