<svg aria-roledescription="flowchart-v2" role="graphics-document document" viewBox="-8 -8 871.109375 218.5" xmlns="http://www.w3.org/2000/svg" id="mmd-dark-25" width="872" height="219"><style>#mmd-dark-25{font-family:"IBM Plex Sans KR","Apple SD Gothic Neo","Malgun Gothic",system-ui,sans-serif;font-size:16px;fill:#ccc;}#mmd-dark-25 .error-icon{fill:#a44141;}#mmd-dark-25 .error-text{fill:#ddd;stroke:#ddd;}#mmd-dark-25 .edge-thickness-normal{stroke-width:2px;}#mmd-dark-25 .edge-thickness-thick{stroke-width:3.5px;}#mmd-dark-25 .edge-pattern-solid{stroke-dasharray:0;}#mmd-dark-25 .edge-pattern-dashed{stroke-dasharray:3;}#mmd-dark-25 .edge-pattern-dotted{stroke-dasharray:2;}#mmd-dark-25 .marker{fill:lightgrey;stroke:lightgrey;}#mmd-dark-25 .marker.cross{stroke:lightgrey;}#mmd-dark-25 svg{font-family:"IBM Plex Sans KR","Apple SD Gothic Neo","Malgun Gothic",system-ui,sans-serif;font-size:16px;}#mmd-dark-25 .label{font-family:"IBM Plex Sans KR","Apple SD Gothic Neo","Malgun Gothic",system-ui,sans-serif;color:#ccc;}#mmd-dark-25 .cluster-label text{fill:#F9FFFE;}#mmd-dark-25 .cluster-label span,#mmd-dark-25 p{color:#F9FFFE;}#mmd-dark-25 .label text,#mmd-dark-25 span,#mmd-dark-25 p{fill:#ccc;color:#ccc;}#mmd-dark-25 .node rect,#mmd-dark-25 .node circle,#mmd-dark-25 .node ellipse,#mmd-dark-25 .node polygon,#mmd-dark-25 .node path{fill:#1f2020;stroke:#81B1DB;stroke-width:1px;}#mmd-dark-25 .flowchart-label text{text-anchor:middle;}#mmd-dark-25 .node .katex path{fill:#000;stroke:#000;stroke-width:1px;}#mmd-dark-25 .node .label{text-align:center;}#mmd-dark-25 .node.clickable{cursor:pointer;}#mmd-dark-25 .arrowheadPath{fill:lightgrey;}#mmd-dark-25 .edgePath .path{stroke:lightgrey;stroke-width:2.0px;}#mmd-dark-25 .flowchart-link{stroke:lightgrey;fill:none;}#mmd-dark-25 .edgeLabel{background-color:hsl(0, 0%, 34.4117647059%);text-align:center;}#mmd-dark-25 .edgeLabel rect{opacity:0.5;background-color:hsl(0, 0%, 34.4117647059%);fill:hsl(0, 0%, 34.4117647059%);}#mmd-dark-25 .labelBkg{background-color:rgba(87.75, 87.75, 87.75, 0.5);}#mmd-dark-25 .cluster rect{fill:hsl(180, 1.5873015873%, 28.3529411765%);stroke:rgba(255, 255, 255, 0.25);stroke-width:1px;}#mmd-dark-25 .cluster text{fill:#F9FFFE;}#mmd-dark-25 .cluster span,#mmd-dark-25 p{color:#F9FFFE;}#mmd-dark-25 div.mermaidTooltip{position:absolute;text-align:center;max-width:200px;padding:2px;font-family:"IBM Plex Sans KR","Apple SD Gothic Neo","Malgun Gothic",system-ui,sans-serif;font-size:12px;background:hsl(20, 1.5873015873%, 12.3529411765%);border:1px solid rgba(255, 255, 255, 0.25);border-radius:2px;pointer-events:none;z-index:100;}#mmd-dark-25 .flowchartTitleText{text-anchor:middle;font-size:18px;fill:#ccc;}#mmd-dark-25 :root{--mermaid-font-family:"IBM Plex Sans KR","Apple SD Gothic Neo","Malgun Gothic",system-ui,sans-serif;}</style><g><marker orient="auto" markerHeight="12" markerWidth="12" markerUnits="userSpaceOnUse" refY="5" refX="6" viewBox="0 0 10 10" class="marker flowchart" id="mmd-dark-25_flowchart-pointEnd"><path style="stroke-width: 1; stroke-dasharray: 1, 0;" class="arrowMarkerPath" d="M 0 0 L 10 5 L 0 10 z"></path></marker><marker orient="auto" markerHeight="12" markerWidth="12" markerUnits="userSpaceOnUse" refY="5" refX="4.5" viewBox="0 0 10 10" class="marker flowchart" id="mmd-dark-25_flowchart-pointStart"><path style="stroke-width: 1; stroke-dasharray: 1, 0;" class="arrowMarkerPath" d="M 0 5 L 10 10 L 10 0 z"></path></marker><marker orient="auto" markerHeight="11" markerWidth="11" markerUnits="userSpaceOnUse" refY="5" refX="11" viewBox="0 0 10 10" class="marker flowchart" id="mmd-dark-25_flowchart-circleEnd"><circle style="stroke-width: 1; stroke-dasharray: 1, 0;" class="arrowMarkerPath" r="5" cy="5" cx="5"></circle></marker><marker orient="auto" markerHeight="11" markerWidth="11" markerUnits="userSpaceOnUse" refY="5" refX="-1" viewBox="0 0 10 10" class="marker flowchart" id="mmd-dark-25_flowchart-circleStart"><circle style="stroke-width: 1; stroke-dasharray: 1, 0;" class="arrowMarkerPath" r="5" cy="5" cx="5"></circle></marker><marker orient="auto" markerHeight="11" markerWidth="11" markerUnits="userSpaceOnUse" refY="5.2" refX="12" viewBox="0 0 11 11" class="marker cross flowchart" id="mmd-dark-25_flowchart-crossEnd"><path style="stroke-width: 2; stroke-dasharray: 1, 0;" class="arrowMarkerPath" d="M 1,1 l 9,9 M 10,1 l -9,9"></path></marker><marker orient="auto" markerHeight="11" markerWidth="11" markerUnits="userSpaceOnUse" refY="5.2" refX="-1" viewBox="0 0 11 11" class="marker cross flowchart" id="mmd-dark-25_flowchart-crossStart"><path style="stroke-width: 2; stroke-dasharray: 1, 0;" class="arrowMarkerPath" d="M 1,1 l 9,9 M 10,1 l -9,9"></path></marker><g class="root"><g class="clusters"></g><g class="edgePaths"><path marker-end="url(#mmd-dark-25_flowchart-pointEnd)" style="fill:none;" class="edge-thickness-normal edge-pattern-solid flowchart-link LS-SD LE-PER" id="L-SD-PER-0" d="M115.5,191.979L119.667,192.482C123.833,192.986,132.167,193.993,144.417,194.496C156.667,195,172.833,195,189,195C205.167,195,221.333,195,232.718,194.319C244.103,193.639,250.706,192.277,254.008,191.596L257.309,190.916"></path><path marker-end="url(#mmd-dark-25_flowchart-pointEnd)" style="fill:none;" class="edge-thickness-normal edge-pattern-solid flowchart-link LS-SD LE-LOC" id="L-SD-LOC-0" d="M112.917,167.5L117.514,166.042C122.111,164.583,131.306,161.667,139.293,158.374C147.28,155.081,154.059,151.411,157.449,149.577L160.839,147.742"></path><path marker-end="url(#mmd-dark-25_flowchart-pointEnd)" style="fill:none;" class="edge-thickness-normal edge-pattern-solid flowchart-link LS-LOC LE-PER" id="L-LOC-PER-0" d="M212.5,145.219L216.667,147.474C220.833,149.729,229.167,154.24,236.723,158.33C244.28,162.419,251.059,166.089,254.449,167.923L257.839,169.758"></path><path marker-end="url(#mmd-dark-25_flowchart-pointEnd)" style="fill:none;" class="edge-thickness-normal edge-pattern-solid flowchart-link LS-PER LE-PRED" id="L-PER-PRED-0" d="M309.5,185L313.667,185C317.833,185,326.167,185,339.709,185C353.252,185,372.003,185,381.379,185L390.755,185"></path><path marker-end="url(#mmd-dark-25_flowchart-pointEnd)" style="fill:none;" class="edge-thickness-normal edge-pattern-solid flowchart-link LS-LOC LE-PLAN" id="L-LOC-PLAN-0" d="M212.5,127.655L216.667,126.796C220.833,125.936,229.167,124.218,241.417,123.359C253.667,122.5,269.833,122.5,286,122.5C302.167,122.5,318.333,122.5,340.592,122.5C362.852,122.5,391.203,122.5,419.555,122.5C447.906,122.5,476.258,122.5,493.735,121.819C511.212,121.139,517.816,119.777,521.117,119.096L524.419,118.416"></path><path marker-end="url(#mmd-dark-25_flowchart-pointEnd)" style="fill:none;" class="edge-thickness-normal edge-pattern-solid flowchart-link LS-PRED LE-PLAN" id="L-PRED-PLAN-0" d="M443.055,185L453.314,185C463.573,185,484.091,185,499.991,176.568C515.891,168.135,527.173,151.27,532.815,142.838L538.456,134.405"></path><path marker-end="url(#mmd-dark-25_flowchart-pointEnd)" style="fill:none;" class="edge-thickness-normal edge-pattern-solid flowchart-link LS-MAP LE-LOC" id="L-MAP-LOC-0" d="M80.92,35L90.85,42.5C100.78,50,120.64,65,135.359,77.684C150.079,90.369,159.658,100.738,164.447,105.922L169.237,111.107"></path><path marker-end="url(#mmd-dark-25_flowchart-pointEnd)" style="fill:none;" class="edge-thickness-normal edge-pattern-solid flowchart-link LS-MAP LE-PLAN" id="L-MAP-PLAN-0" d="M87.219,13.939L96.099,12.866C104.979,11.793,122.74,9.646,139.703,8.573C156.667,7.5,172.833,7.5,189,7.5C205.167,7.5,221.333,7.5,237.5,7.5C253.667,7.5,269.833,7.5,286,7.5C302.167,7.5,318.333,7.5,340.592,7.5C362.852,7.5,391.203,7.5,419.555,7.5C447.906,7.5,476.258,7.5,496.799,21.281C517.341,35.063,530.072,62.626,536.438,76.407L542.804,90.188"></path><path marker-end="url(#mmd-dark-25_flowchart-pointEnd)" style="fill:none;" class="edge-thickness-normal edge-pattern-solid flowchart-link LS-PLAN LE-CTL" id="L-PLAN-CTL-0" d="M576.609,112.5L580.776,112.5C584.943,112.5,593.276,112.5,600.726,112.5C608.176,112.5,614.743,112.5,618.026,112.5L621.309,112.5"></path><path marker-end="url(#mmd-dark-25_flowchart-pointEnd)" style="fill:none;" class="edge-thickness-normal edge-pattern-solid flowchart-link LS-CTL LE-VI" id="L-CTL-VI-0" d="M673.609,112.5L677.776,112.5C681.943,112.5,690.276,112.5,698.636,111.287C706.996,110.074,715.382,107.648,719.575,106.436L723.768,105.223"></path><path marker-end="url(#mmd-dark-25_flowchart-pointEnd)" style="fill:none;stroke-width:2px;stroke-dasharray:3;" class="edge-thickness-normal edge-pattern-dotted flowchart-link LS-MON LE-PLAN" id="L-MON-PLAN-0" d="M476.258,77.5L480.983,78.958C485.708,80.417,495.159,83.333,503.274,86.626C511.389,89.919,518.169,93.589,521.558,95.423L524.948,97.258"></path><path marker-end="url(#mmd-dark-25_flowchart-pointEnd)" style="fill:none;stroke-width:2px;stroke-dasharray:3;" class="edge-thickness-normal edge-pattern-dotted flowchart-link LS-MON LE-VI" id="L-MON-VI-0" d="M479.609,48.526L483.776,47.73C487.943,46.934,496.276,45.342,508.526,44.546C520.776,43.75,536.943,43.75,553.109,43.75C569.276,43.75,585.443,43.75,601.609,43.75C617.776,43.75,633.943,43.75,650.109,43.75C666.276,43.75,682.443,43.75,698.623,47.542C714.804,51.334,730.998,58.918,739.095,62.71L747.192,66.502"></path></g><g class="edgeLabels"><g class="edgeLabel"><g transform="translate(0, 0)" class="label"><rect height="0" width="0" ry="0" rx="0"></rect><text style=""><tspan class="row" x="0" dy="1em" xml:space="preserve"></tspan></text></g></g><g class="edgeLabel"><g transform="translate(0, 0)" class="label"><rect height="0" width="0" ry="0" rx="0"></rect><text style=""><tspan class="row" x="0" dy="1em" xml:space="preserve"></tspan></text></g></g><g class="edgeLabel"><g transform="translate(0, 0)" class="label"><rect height="0" width="0" ry="0" rx="0"></rect><text style=""><tspan class="row" x="0" dy="1em" xml:space="preserve"></tspan></text></g></g><g class="edgeLabel"><g transform="translate(0, 0)" class="label"><rect height="0" width="0" ry="0" rx="0"></rect><text style=""><tspan class="row" x="0" dy="1em" xml:space="preserve"></tspan></text></g></g><g class="edgeLabel"><g transform="translate(0, 0)" class="label"><rect height="0" width="0" ry="0" rx="0"></rect><text style=""><tspan class="row" x="0" dy="1em" xml:space="preserve"></tspan></text></g></g><g class="edgeLabel"><g transform="translate(0, 0)" class="label"><rect height="0" width="0" ry="0" rx="0"></rect><text style=""><tspan class="row" x="0" dy="1em" xml:space="preserve"></tspan></text></g></g><g class="edgeLabel"><g transform="translate(0, 0)" class="label"><rect height="0" width="0" ry="0" rx="0"></rect><text style=""><tspan class="row" x="0" dy="1em" xml:space="preserve"></tspan></text></g></g><g class="edgeLabel"><g transform="translate(0, 0)" class="label"><rect height="0" width="0" ry="0" rx="0"></rect><text style=""><tspan class="row" x="0" dy="1em" xml:space="preserve"></tspan></text></g></g><g class="edgeLabel"><g transform="translate(0, 0)" class="label"><rect height="0" width="0" ry="0" rx="0"></rect><text style=""><tspan class="row" x="0" dy="1em" xml:space="preserve"></tspan></text></g></g><g class="edgeLabel"><g transform="translate(0, 0)" class="label"><rect height="0" width="0" ry="0" rx="0"></rect><text style=""><tspan class="row" x="0" dy="1em" xml:space="preserve"></tspan></text></g></g><g class="edgeLabel"><g transform="translate(0, 0)" class="label"><rect height="0" width="0" ry="0" rx="0"></rect><text style=""><tspan class="row" x="0" dy="1em" xml:space="preserve"></tspan></text></g></g><g class="edgeLabel"><g transform="translate(0, 0)" class="label"><rect height="0" width="0" ry="0" rx="0"></rect><text style=""><tspan class="row" x="0" dy="1em" xml:space="preserve"></tspan></text></g></g></g><g class="nodes"><g transform="translate(57.75, 185)" data-id="SD" data-node="true" id="flowchart-SD-3010" class="node default default flowchart-label"><rect height="35" width="115.5" y="-17.5" x="-57.75" ry="0" rx="0" style="" class="basic label-container"></rect><g transform="translate(0, -10)" style="" class="label"><rect></rect><text style=""><tspan class="row" x="0" dy="1em" xml:space="preserve">센서 드라이버</tspan></text></g></g><g transform="translate(286, 185)" data-id="PER" data-node="true" id="flowchart-PER-3011" class="node default default flowchart-label"><rect height="35" width="47" y="-17.5" x="-23.5" ry="0" rx="0" style="" class="basic label-container"></rect><g transform="translate(0, -10)" style="" class="label"><rect></rect><text style=""><tspan class="row" x="0" dy="1em" xml:space="preserve">인지</tspan></text></g></g><g transform="translate(189, 132.5)" data-id="LOC" data-node="true" id="flowchart-LOC-3013" class="node default default flowchart-label"><rect height="35" width="47" y="-17.5" x="-23.5" ry="0" rx="0" style="" class="basic label-container"></rect><g transform="translate(0, -10)" style="" class="label"><rect></rect><text style=""><tspan class="row" x="0" dy="1em" xml:space="preserve">측위</tspan></text></g></g><g transform="translate(419.5546875, 185)" data-id="PRED" data-node="true" id="flowchart-PRED-3017" class="node default default flowchart-label"><rect height="35" width="47" y="-17.5" x="-23.5" ry="0" rx="0" style="" class="basic label-container"></rect><g transform="translate(0, -10)" style="" class="label"><rect></rect><text style=""><tspan class="row" x="0" dy="1em" xml:space="preserve">예측</tspan></text></g></g><g transform="translate(553.109375, 112.5)" data-id="PLAN" data-node="true" id="flowchart-PLAN-3019" class="node default default flowchart-label"><rect height="35" width="47" y="-17.5" x="-23.5" ry="0" rx="0" style="" class="basic label-container"></rect><g transform="translate(0, -10)" style="" class="label"><rect></rect><text style=""><tspan class="row" x="0" dy="1em" xml:space="preserve">계획</tspan></text></g></g><g transform="translate(57.75, 17.5)" data-id="MAP" data-node="true" id="flowchart-MAP-3022" class="node default default flowchart-label"><rect height="35" width="58.9375" y="-17.5" x="-29.46875" ry="0" rx="0" style="" class="basic label-container"></rect><g transform="translate(0, -10)" style="" class="label"><rect></rect><text style=""><tspan class="row" x="0" dy="1em" xml:space="preserve">HD 맵</tspan></text></g></g><g transform="translate(650.109375, 112.5)" data-id="CTL" data-node="true" id="flowchart-CTL-3027" class="node default default flowchart-label"><rect height="35" width="47" y="-17.5" x="-23.5" ry="0" rx="0" style="" class="basic label-container"></rect><g transform="translate(0, -10)" style="" class="label"><rect></rect><text style=""><tspan class="row" x="0" dy="1em" xml:space="preserve">제어</tspan></text></g></g><g transform="translate(789.359375, 86.25)" data-id="VI" data-node="true" id="flowchart-VI-3029" class="node default default flowchart-label"><rect height="35" width="131.5" y="-17.5" x="-65.75" ry="0" rx="0" style="" class="basic label-container"></rect><g transform="translate(0, -10)" style="" class="label"><rect></rect><text style=""><tspan class="row" x="0" dy="1em" xml:space="preserve">차량 인터페이스</tspan></text></g></g><g transform="translate(419.5546875, 60)" data-id="MON" data-node="true" id="flowchart-MON-3030" class="node default default flowchart-label"><rect height="35" width="120.109375" y="-17.5" x="-60.0546875" ry="0" rx="0" style="" class="basic label-container"></rect><g transform="translate(0, -10)" style="" class="label"><rect></rect><text style=""><tspan class="row" x="0" dy="1em" xml:space="preserve">진단·안전 감시</tspan></text></g></g></g></g></g></svg>