<svg aria-roledescription="flowchart-v2" role="graphics-document document" viewBox="-8 -8 978.8125 306" xmlns="http://www.w3.org/2000/svg" id="mmd-dark-365" width="979" height="306"><style>#mmd-dark-365{font-family:"IBM Plex Sans KR","Apple SD Gothic Neo","Malgun Gothic",system-ui,sans-serif;font-size:16px;fill:#ccc;}#mmd-dark-365 .error-icon{fill:#a44141;}#mmd-dark-365 .error-text{fill:#ddd;stroke:#ddd;}#mmd-dark-365 .edge-thickness-normal{stroke-width:2px;}#mmd-dark-365 .edge-thickness-thick{stroke-width:3.5px;}#mmd-dark-365 .edge-pattern-solid{stroke-dasharray:0;}#mmd-dark-365 .edge-pattern-dashed{stroke-dasharray:3;}#mmd-dark-365 .edge-pattern-dotted{stroke-dasharray:2;}#mmd-dark-365 .marker{fill:lightgrey;stroke:lightgrey;}#mmd-dark-365 .marker.cross{stroke:lightgrey;}#mmd-dark-365 svg{font-family:"IBM Plex Sans KR","Apple SD Gothic Neo","Malgun Gothic",system-ui,sans-serif;font-size:16px;}#mmd-dark-365 .label{font-family:"IBM Plex Sans KR","Apple SD Gothic Neo","Malgun Gothic",system-ui,sans-serif;color:#ccc;}#mmd-dark-365 .cluster-label text{fill:#F9FFFE;}#mmd-dark-365 .cluster-label span,#mmd-dark-365 p{color:#F9FFFE;}#mmd-dark-365 .label text,#mmd-dark-365 span,#mmd-dark-365 p{fill:#ccc;color:#ccc;}#mmd-dark-365 .node rect,#mmd-dark-365 .node circle,#mmd-dark-365 .node ellipse,#mmd-dark-365 .node polygon,#mmd-dark-365 .node path{fill:#1f2020;stroke:#81B1DB;stroke-width:1px;}#mmd-dark-365 .flowchart-label text{text-anchor:middle;}#mmd-dark-365 .node .katex path{fill:#000;stroke:#000;stroke-width:1px;}#mmd-dark-365 .node .label{text-align:center;}#mmd-dark-365 .node.clickable{cursor:pointer;}#mmd-dark-365 .arrowheadPath{fill:lightgrey;}#mmd-dark-365 .edgePath .path{stroke:lightgrey;stroke-width:2.0px;}#mmd-dark-365 .flowchart-link{stroke:lightgrey;fill:none;}#mmd-dark-365 .edgeLabel{background-color:hsl(0, 0%, 34.4117647059%);text-align:center;}#mmd-dark-365 .edgeLabel rect{opacity:0.5;background-color:hsl(0, 0%, 34.4117647059%);fill:hsl(0, 0%, 34.4117647059%);}#mmd-dark-365 .labelBkg{background-color:rgba(87.75, 87.75, 87.75, 0.5);}#mmd-dark-365 .cluster rect{fill:hsl(180, 1.5873015873%, 28.3529411765%);stroke:rgba(255, 255, 255, 0.25);stroke-width:1px;}#mmd-dark-365 .cluster text{fill:#F9FFFE;}#mmd-dark-365 .cluster span,#mmd-dark-365 p{color:#F9FFFE;}#mmd-dark-365 div.mermaidTooltip{position:absolute;text-align:center;max-width:200px;padding:2px;font-family:"IBM Plex Sans KR","Apple SD Gothic Neo","Malgun Gothic",system-ui,sans-serif;font-size:12px;background:hsl(20, 1.5873015873%, 12.3529411765%);border:1px solid rgba(255, 255, 255, 0.25);border-radius:2px;pointer-events:none;z-index:100;}#mmd-dark-365 .flowchartTitleText{text-anchor:middle;font-size:18px;fill:#ccc;}#mmd-dark-365 :root{--mermaid-font-family:"IBM Plex Sans KR","Apple SD Gothic Neo","Malgun Gothic",system-ui,sans-serif;}</style><g><marker orient="auto" markerHeight="12" markerWidth="12" markerUnits="userSpaceOnUse" refY="5" refX="6" viewBox="0 0 10 10" class="marker flowchart" id="mmd-dark-365_flowchart-pointEnd"><path style="stroke-width: 1; stroke-dasharray: 1, 0;" class="arrowMarkerPath" d="M 0 0 L 10 5 L 0 10 z"></path></marker><marker orient="auto" markerHeight="12" markerWidth="12" markerUnits="userSpaceOnUse" refY="5" refX="4.5" viewBox="0 0 10 10" class="marker flowchart" id="mmd-dark-365_flowchart-pointStart"><path style="stroke-width: 1; stroke-dasharray: 1, 0;" class="arrowMarkerPath" d="M 0 5 L 10 10 L 10 0 z"></path></marker><marker orient="auto" markerHeight="11" markerWidth="11" markerUnits="userSpaceOnUse" refY="5" refX="11" viewBox="0 0 10 10" class="marker flowchart" id="mmd-dark-365_flowchart-circleEnd"><circle style="stroke-width: 1; stroke-dasharray: 1, 0;" class="arrowMarkerPath" r="5" cy="5" cx="5"></circle></marker><marker orient="auto" markerHeight="11" markerWidth="11" markerUnits="userSpaceOnUse" refY="5" refX="-1" viewBox="0 0 10 10" class="marker flowchart" id="mmd-dark-365_flowchart-circleStart"><circle style="stroke-width: 1; stroke-dasharray: 1, 0;" class="arrowMarkerPath" r="5" cy="5" cx="5"></circle></marker><marker orient="auto" markerHeight="11" markerWidth="11" markerUnits="userSpaceOnUse" refY="5.2" refX="12" viewBox="0 0 11 11" class="marker cross flowchart" id="mmd-dark-365_flowchart-crossEnd"><path style="stroke-width: 2; stroke-dasharray: 1, 0;" class="arrowMarkerPath" d="M 1,1 l 9,9 M 10,1 l -9,9"></path></marker><marker orient="auto" markerHeight="11" markerWidth="11" markerUnits="userSpaceOnUse" refY="5.2" refX="-1" viewBox="0 0 11 11" class="marker cross flowchart" id="mmd-dark-365_flowchart-crossStart"><path style="stroke-width: 2; stroke-dasharray: 1, 0;" class="arrowMarkerPath" d="M 1,1 l 9,9 M 10,1 l -9,9"></path></marker><g class="root"><g class="clusters"></g><g class="edgePaths"><path marker-end="url(#mmd-dark-365_flowchart-pointEnd)" style="fill:none;" class="edge-thickness-normal edge-pattern-solid flowchart-link LS-CAM LE-W" id="L-CAM-W-0" d="M154.359,272.5L161.586,272.5C168.813,272.5,183.266,272.5,204.467,254.859C225.668,237.218,253.616,201.936,267.591,184.295L281.565,166.654"></path><path marker-end="url(#mmd-dark-365_flowchart-pointEnd)" style="fill:none;" class="edge-thickness-normal edge-pattern-solid flowchart-link LS-SLIP LE-W" id="L-SLIP-W-0" d="M145.352,187.5L154.079,187.5C162.807,187.5,180.263,187.5,198.079,183.676C215.894,179.852,234.07,172.204,243.158,168.38L252.245,164.556"></path><path marker-end="url(#mmd-dark-365_flowchart-pointEnd)" style="fill:none;" class="edge-thickness-normal edge-pattern-solid flowchart-link LS-WX LE-W" id="L-WX-W-0" d="M172.719,102.5L176.885,102.5C181.052,102.5,189.385,102.5,202.64,106.324C215.894,110.148,234.07,117.796,243.158,121.62L252.245,125.444"></path><path marker-end="url(#mmd-dark-365_flowchart-pointEnd)" style="fill:none;" class="edge-thickness-normal edge-pattern-solid flowchart-link LS-V2X LE-W" id="L-V2X-W-0" d="M164.609,17.5L170.128,17.5C175.646,17.5,186.682,17.5,206.175,35.141C225.668,52.782,253.616,88.064,267.591,105.705L281.565,123.346"></path><path marker-end="url(#mmd-dark-365_flowchart-pointEnd)" style="fill:none;" class="edge-thickness-normal edge-pattern-solid flowchart-link LS-W LE-BF" id="L-W-BF-0" d="M374.719,145L378.885,145C383.052,145,391.385,145,398.835,145C406.285,145,412.852,145,416.135,145L419.419,145"></path><path marker-end="url(#mmd-dark-365_flowchart-pointEnd)" style="fill:none;" class="edge-thickness-normal edge-pattern-solid flowchart-link LS-MAP LE-BF" id="L-MAP-BF-0" d="M790.313,94.747L786.146,94.373C781.979,93.998,773.646,93.249,752.805,92.875C731.964,92.5,698.615,92.5,665.266,92.5C631.917,92.5,598.568,92.5,573.445,97.86C548.322,103.22,531.425,113.94,522.976,119.301L514.527,124.661"></path><path marker-end="url(#mmd-dark-365_flowchart-pointEnd)" style="fill:none;" class="edge-thickness-normal edge-pattern-solid flowchart-link LS-BF LE-OUT" id="L-BF-OUT-0" d="M527.026,162.5L533.392,165C539.757,167.5,552.488,172.5,562.137,175C571.785,177.5,578.352,177.5,581.635,177.5L584.919,177.5"></path><path marker-end="url(#mmd-dark-365_flowchart-pointEnd)" style="fill:none;" class="edge-thickness-normal edge-pattern-solid flowchart-link LS-OUT LE-MAP" id="L-OUT-MAP-0" d="M706.461,160L716.27,155.833C726.078,151.667,745.695,143.333,763.214,136.914C780.732,130.495,796.152,125.991,803.861,123.738L811.571,121.486"></path><path marker-end="url(#mmd-dark-365_flowchart-pointEnd)" style="fill:none;" class="edge-thickness-normal edge-pattern-solid flowchart-link LS-OUT LE-PL" id="L-OUT-PL-0" d="M740.313,185.001L744.479,185.418C748.646,185.834,756.979,186.667,768.804,187.084C780.629,187.5,795.946,187.5,803.604,187.5L811.263,187.5"></path></g><g class="edgeLabels"><g class="edgeLabel"><g transform="translate(0, 0)" class="label"><rect height="0" width="0" ry="0" rx="0"></rect><text style=""><tspan class="row" x="0" dy="1em" xml:space="preserve"></tspan></text></g></g><g class="edgeLabel"><g transform="translate(0, 0)" class="label"><rect height="0" width="0" ry="0" rx="0"></rect><text style=""><tspan class="row" x="0" dy="1em" xml:space="preserve"></tspan></text></g></g><g class="edgeLabel"><g transform="translate(0, 0)" class="label"><rect height="0" width="0" ry="0" rx="0"></rect><text style=""><tspan class="row" x="0" dy="1em" xml:space="preserve"></tspan></text></g></g><g class="edgeLabel"><g transform="translate(0, 0)" class="label"><rect height="0" width="0" ry="0" rx="0"></rect><text style=""><tspan class="row" x="0" dy="1em" xml:space="preserve"></tspan></text></g></g><g class="edgeLabel"><g transform="translate(0, 0)" class="label"><rect height="0" width="0" ry="0" rx="0"></rect><text style=""><tspan class="row" x="0" dy="1em" xml:space="preserve"></tspan></text></g></g><g class="edgeLabel"><g transform="translate(0, 0)" class="label"><rect height="0" width="0" ry="0" rx="0"></rect><text style=""><tspan class="row" x="0" dy="1em" xml:space="preserve"></tspan></text></g></g><g class="edgeLabel"><g transform="translate(0, 0)" class="label"><rect height="0" width="0" ry="0" rx="0"></rect><text style=""><tspan class="row" x="0" dy="1em" xml:space="preserve"></tspan></text></g></g><g class="edgeLabel"><g transform="translate(0, 0)" class="label"><rect height="0" width="0" ry="0" rx="0"></rect><text style=""><tspan class="row" x="0" dy="1em" xml:space="preserve"></tspan></text></g></g><g class="edgeLabel"><g transform="translate(0, 0)" class="label"><rect height="0" width="0" ry="0" rx="0"></rect><text style=""><tspan class="row" x="0" dy="1em" xml:space="preserve"></tspan></text></g></g></g><g class="nodes"><g transform="translate(86.359375, 272.5)" data-id="CAM" data-node="true" id="flowchart-CAM-3752" class="node default default flowchart-label"><rect height="35" width="136" y="-17.5" x="-68" ry="0" rx="0" style="" class="basic label-container"></rect><g transform="translate(0, -10)" style="" class="label"><rect></rect><text style=""><tspan class="row" x="0" dy="1em" xml:space="preserve">카메라 노면 분류</tspan></text></g></g><g transform="translate(298.71875, 145)" data-id="W" data-node="true" id="flowchart-W-3753" class="node default default flowchart-label"><rect height="35" width="152" y="-17.5" x="-76" ry="0" rx="0" style="" class="basic label-container"></rect><g transform="translate(0, -10)" style="" class="label"><rect></rect><text style=""><tspan class="row" x="0" dy="1em" xml:space="preserve">조건부 신뢰도 가중</tspan></text></g></g><g transform="translate(86.359375, 187.5)" data-id="SLIP" data-node="true" id="flowchart-SLIP-3754" class="node default default flowchart-label"><rect height="35" width="117.984375" y="-17.5" x="-58.9921875" ry="0" rx="0" style="" class="basic label-container"></rect><g transform="translate(0, -10)" style="" class="label"><rect></rect><text style=""><tspan class="row" x="0" dy="1em" xml:space="preserve">휠 슬립·μ 추정</tspan></text></g></g><g transform="translate(86.359375, 102.5)" data-id="WX" data-node="true" id="flowchart-WX-3756" class="node default default flowchart-label"><rect height="35" width="172.71875" y="-17.5" x="-86.359375" ry="0" rx="0" style="" class="basic label-container"></rect><g transform="translate(0, -10)" style="" class="label"><rect></rect><text style=""><tspan class="row" x="0" dy="1em" xml:space="preserve">외기 온도·와이퍼·기상</tspan></text></g></g><g transform="translate(86.359375, 17.5)" data-id="V2X" data-node="true" id="flowchart-V2X-3758" class="node default default flowchart-label"><rect height="35" width="156.5" y="-17.5" x="-78.25" ry="0" rx="0" style="" class="basic label-container"></rect><g transform="translate(0, -10)" style="" class="label"><rect></rect><text style=""><tspan class="row" x="0" dy="1em" xml:space="preserve">외부 공유 노면 정보</tspan></text></g></g><g transform="translate(482.46875, 145)" data-id="BF" data-node="true" id="flowchart-BF-3761" class="node default default flowchart-label"><rect height="35" width="115.5" y="-17.5" x="-57.75" ry="0" rx="0" style="" class="basic label-container"></rect><g transform="translate(0, -10)" style="" class="label"><rect></rect><text style=""><tspan class="row" x="0" dy="1em" xml:space="preserve">베이지안 결합</tspan></text></g></g><g transform="translate(876.5625, 102.5)" data-id="MAP" data-node="true" id="flowchart-MAP-3762" class="node default default flowchart-label"><rect height="35" width="172.5" y="-17.5" x="-86.25" ry="0" rx="0" style="" class="basic label-container"></rect><g transform="translate(0, -10)" style="" class="label"><rect></rect><text style=""><tspan class="row" x="0" dy="1em" xml:space="preserve">노면 상태 지도 사전값</tspan></text></g></g><g transform="translate(665.265625, 177.5)" data-id="OUT" data-node="true" id="flowchart-OUT-3765" class="node default default flowchart-label"><rect height="35" width="150.09375" y="-17.5" x="-75.046875" ry="0" rx="0" style="" class="basic label-container"></rect><g transform="translate(0, -10)" style="" class="label"><rect></rect><text style=""><tspan class="row" x="0" dy="1em" xml:space="preserve">노면 등급·μ·신뢰도</tspan></text></g></g><g transform="translate(876.5625, 187.5)" data-id="PL" data-node="true" id="flowchart-PL-3769" class="node default default flowchart-label"><rect height="35" width="120" y="-17.5" x="-60" ry="0" rx="0" style="" class="basic label-container"></rect><g transform="translate(0, -10)" style="" class="label"><rect></rect><text style=""><tspan class="row" x="0" dy="1em" xml:space="preserve">계획 한계 조정</tspan></text></g></g></g></g></g></svg>