<svg aria-roledescription="flowchart-v2" role="graphics-document document" viewBox="-8 -8 259.6171875 830.1875" xmlns="http://www.w3.org/2000/svg" id="mmd-dark-645" width="260" height="831"><style>#mmd-dark-645{font-family:"IBM Plex Sans KR","Apple SD Gothic Neo","Malgun Gothic",system-ui,sans-serif;font-size:16px;fill:#ccc;}#mmd-dark-645 .error-icon{fill:#a44141;}#mmd-dark-645 .error-text{fill:#ddd;stroke:#ddd;}#mmd-dark-645 .edge-thickness-normal{stroke-width:2px;}#mmd-dark-645 .edge-thickness-thick{stroke-width:3.5px;}#mmd-dark-645 .edge-pattern-solid{stroke-dasharray:0;}#mmd-dark-645 .edge-pattern-dashed{stroke-dasharray:3;}#mmd-dark-645 .edge-pattern-dotted{stroke-dasharray:2;}#mmd-dark-645 .marker{fill:lightgrey;stroke:lightgrey;}#mmd-dark-645 .marker.cross{stroke:lightgrey;}#mmd-dark-645 svg{font-family:"IBM Plex Sans KR","Apple SD Gothic Neo","Malgun Gothic",system-ui,sans-serif;font-size:16px;}#mmd-dark-645 .label{font-family:"IBM Plex Sans KR","Apple SD Gothic Neo","Malgun Gothic",system-ui,sans-serif;color:#ccc;}#mmd-dark-645 .cluster-label text{fill:#F9FFFE;}#mmd-dark-645 .cluster-label span,#mmd-dark-645 p{color:#F9FFFE;}#mmd-dark-645 .label text,#mmd-dark-645 span,#mmd-dark-645 p{fill:#ccc;color:#ccc;}#mmd-dark-645 .node rect,#mmd-dark-645 .node circle,#mmd-dark-645 .node ellipse,#mmd-dark-645 .node polygon,#mmd-dark-645 .node path{fill:#1f2020;stroke:#81B1DB;stroke-width:1px;}#mmd-dark-645 .flowchart-label text{text-anchor:middle;}#mmd-dark-645 .node .katex path{fill:#000;stroke:#000;stroke-width:1px;}#mmd-dark-645 .node .label{text-align:center;}#mmd-dark-645 .node.clickable{cursor:pointer;}#mmd-dark-645 .arrowheadPath{fill:lightgrey;}#mmd-dark-645 .edgePath .path{stroke:lightgrey;stroke-width:2.0px;}#mmd-dark-645 .flowchart-link{stroke:lightgrey;fill:none;}#mmd-dark-645 .edgeLabel{background-color:hsl(0, 0%, 34.4117647059%);text-align:center;}#mmd-dark-645 .edgeLabel rect{opacity:0.5;background-color:hsl(0, 0%, 34.4117647059%);fill:hsl(0, 0%, 34.4117647059%);}#mmd-dark-645 .labelBkg{background-color:rgba(87.75, 87.75, 87.75, 0.5);}#mmd-dark-645 .cluster rect{fill:hsl(180, 1.5873015873%, 28.3529411765%);stroke:rgba(255, 255, 255, 0.25);stroke-width:1px;}#mmd-dark-645 .cluster text{fill:#F9FFFE;}#mmd-dark-645 .cluster span,#mmd-dark-645 p{color:#F9FFFE;}#mmd-dark-645 div.mermaidTooltip{position:absolute;text-align:center;max-width:200px;padding:2px;font-family:"IBM Plex Sans KR","Apple SD Gothic Neo","Malgun Gothic",system-ui,sans-serif;font-size:12px;background:hsl(20, 1.5873015873%, 12.3529411765%);border:1px solid rgba(255, 255, 255, 0.25);border-radius:2px;pointer-events:none;z-index:100;}#mmd-dark-645 .flowchartTitleText{text-anchor:middle;font-size:18px;fill:#ccc;}#mmd-dark-645 :root{--mermaid-font-family:"IBM Plex Sans KR","Apple SD Gothic Neo","Malgun Gothic",system-ui,sans-serif;}</style><g><marker orient="auto" markerHeight="12" markerWidth="12" markerUnits="userSpaceOnUse" refY="5" refX="6" viewBox="0 0 10 10" class="marker flowchart" id="mmd-dark-645_flowchart-pointEnd"><path style="stroke-width: 1; stroke-dasharray: 1, 0;" class="arrowMarkerPath" d="M 0 0 L 10 5 L 0 10 z"></path></marker><marker orient="auto" markerHeight="12" markerWidth="12" markerUnits="userSpaceOnUse" refY="5" refX="4.5" viewBox="0 0 10 10" class="marker flowchart" id="mmd-dark-645_flowchart-pointStart"><path style="stroke-width: 1; stroke-dasharray: 1, 0;" class="arrowMarkerPath" d="M 0 5 L 10 10 L 10 0 z"></path></marker><marker orient="auto" markerHeight="11" markerWidth="11" markerUnits="userSpaceOnUse" refY="5" refX="11" viewBox="0 0 10 10" class="marker flowchart" id="mmd-dark-645_flowchart-circleEnd"><circle style="stroke-width: 1; stroke-dasharray: 1, 0;" class="arrowMarkerPath" r="5" cy="5" cx="5"></circle></marker><marker orient="auto" markerHeight="11" markerWidth="11" markerUnits="userSpaceOnUse" refY="5" refX="-1" viewBox="0 0 10 10" class="marker flowchart" id="mmd-dark-645_flowchart-circleStart"><circle style="stroke-width: 1; stroke-dasharray: 1, 0;" class="arrowMarkerPath" r="5" cy="5" cx="5"></circle></marker><marker orient="auto" markerHeight="11" markerWidth="11" markerUnits="userSpaceOnUse" refY="5.2" refX="12" viewBox="0 0 11 11" class="marker cross flowchart" id="mmd-dark-645_flowchart-crossEnd"><path style="stroke-width: 2; stroke-dasharray: 1, 0;" class="arrowMarkerPath" d="M 1,1 l 9,9 M 10,1 l -9,9"></path></marker><marker orient="auto" markerHeight="11" markerWidth="11" markerUnits="userSpaceOnUse" refY="5.2" refX="-1" viewBox="0 0 11 11" class="marker cross flowchart" id="mmd-dark-645_flowchart-crossStart"><path style="stroke-width: 2; stroke-dasharray: 1, 0;" class="arrowMarkerPath" d="M 1,1 l 9,9 M 10,1 l -9,9"></path></marker><g class="root"><g class="clusters"></g><g class="edgePaths"><path marker-end="url(#mmd-dark-645_flowchart-pointEnd)" style="fill:none;" class="edge-thickness-normal edge-pattern-solid flowchart-link LS-A LE-B" id="L-A-B-0" d="M154.023,35L154.023,39.167C154.023,43.333,154.023,51.667,154.023,59.117C154.023,66.567,154.023,73.133,154.023,76.417L154.023,79.7"></path><path marker-end="url(#mmd-dark-645_flowchart-pointEnd)" style="fill:none;" class="edge-thickness-normal edge-pattern-solid flowchart-link LS-B LE-C" id="L-B-C-0" d="M128.079,120L121.902,124.167C115.725,128.333,103.37,136.667,97.193,144.117C91.016,151.567,91.016,158.133,91.016,161.417L91.016,164.7"></path><path marker-end="url(#mmd-dark-645_flowchart-pointEnd)" style="fill:none;" class="edge-thickness-normal edge-pattern-solid flowchart-link LS-C LE-D" id="L-C-D-0" d="M91.016,205L91.016,209.167C91.016,213.333,91.016,221.667,91.016,229.117C91.016,236.567,91.016,243.133,91.016,246.417L91.016,249.7"></path><path marker-end="url(#mmd-dark-645_flowchart-pointEnd)" style="fill:none;" class="edge-thickness-normal edge-pattern-solid flowchart-link LS-D LE-E" id="L-D-E-0" d="M91.016,290L91.016,295.833C91.016,301.667,91.016,313.333,91.016,324.117C91.016,334.9,91.016,344.8,91.016,349.75L91.016,354.7"></path><path marker-end="url(#mmd-dark-645_flowchart-pointEnd)" style="fill:none;" class="edge-thickness-normal edge-pattern-solid flowchart-link LS-E LE-F" id="L-E-F-0" d="M91.016,395L91.016,399.167C91.016,403.333,91.016,411.667,91.016,419.117C91.016,426.567,91.016,433.133,91.016,436.417L91.016,439.7"></path><path marker-end="url(#mmd-dark-645_flowchart-pointEnd)" style="fill:none;" class="edge-thickness-normal edge-pattern-solid flowchart-link LS-F LE-G" id="L-F-G-0" d="M91.016,480L91.016,484.167C91.016,488.333,91.016,496.667,95.875,509.608C100.734,522.55,110.452,540.099,115.311,548.874L120.171,557.649"></path><path marker-end="url(#mmd-dark-645_flowchart-pointEnd)" style="fill:none;" class="edge-thickness-normal edge-pattern-solid flowchart-link LS-G LE-B" id="L-G-B-0" d="M186.309,562.285L191.429,552.738C196.55,543.19,206.79,524.095,211.911,507.464C217.031,490.833,217.031,476.667,217.031,462.5C217.031,448.333,217.031,434.167,217.031,420C217.031,405.833,217.031,391.667,217.031,375.833C217.031,360,217.031,342.5,217.031,325C217.031,307.5,217.031,290,217.031,274.167C217.031,258.333,217.031,244.167,217.031,230C217.031,215.833,217.031,201.667,217.031,187.5C217.031,173.333,217.031,159.167,211.586,148.411C206.141,137.655,195.252,130.309,189.807,126.636L184.362,122.964"></path><path marker-end="url(#mmd-dark-645_flowchart-pointEnd)" style="fill:none;" class="edge-thickness-normal edge-pattern-solid flowchart-link LS-G LE-H" id="L-G-H-0" d="M154.523,709.688L154.44,715.438C154.357,721.188,154.19,732.688,154.107,743.387C154.023,754.088,154.023,763.988,154.023,768.938L154.023,773.888"></path></g><g class="edgeLabels"><g class="edgeLabel"><g transform="translate(0, 0)" class="label"><rect height="0" width="0" ry="0" rx="0"></rect><text style=""><tspan class="row" x="0" dy="1em" xml:space="preserve"></tspan></text></g></g><g class="edgeLabel"><g transform="translate(0, 0)" class="label"><rect height="0" width="0" ry="0" rx="0"></rect><text style=""><tspan class="row" x="0" dy="1em" xml:space="preserve"></tspan></text></g></g><g class="edgeLabel"><g transform="translate(0, 0)" class="label"><rect height="0" width="0" ry="0" rx="0"></rect><text style=""><tspan class="row" x="0" dy="1em" xml:space="preserve"></tspan></text></g></g><g class="edgeLabel"><g transform="translate(0, 0)" class="label"><rect height="0" width="0" ry="0" rx="0"></rect><text style=""><tspan class="row" x="0" dy="1em" xml:space="preserve"></tspan></text></g></g><g class="edgeLabel"><g transform="translate(0, 0)" class="label"><rect height="0" width="0" ry="0" rx="0"></rect><text style=""><tspan class="row" x="0" dy="1em" xml:space="preserve"></tspan></text></g></g><g class="edgeLabel"><g transform="translate(0, 0)" class="label"><rect height="0" width="0" ry="0" rx="0"></rect><text style=""><tspan class="row" x="0" dy="1em" xml:space="preserve"></tspan></text></g></g><g transform="translate(217.03125, 325)" class="edgeLabel"><g transform="translate(-24, -10)" class="label"><rect height="19.000715255737305" width="47.954933166503906" ry="0" rx="0"></rect><text style=""><tspan class="row" x="0" dy="1em" xml:space="preserve">아니오</tspan></text></g></g><g transform="translate(154.0234375, 744.1875)" class="edgeLabel"><g transform="translate(-8, -10)" class="label"><rect height="19.000715255737305" width="15.984976768493652" ry="0" rx="0"></rect><text style=""><tspan class="row" x="0" dy="1em" xml:space="preserve">예</tspan></text></g></g></g><g class="nodes"><g transform="translate(154.0234375, 17.5)" data-id="A" data-node="true" id="flowchart-A-4114" class="node default default flowchart-label"><rect height="35" width="152.046875" y="-17.5" x="-76.0234375" ry="0" rx="0" style="" class="basic label-container"></rect><g transform="translate(0, -10)" style="" class="label"><rect></rect><text style=""><tspan class="row" x="0" dy="1em" xml:space="preserve">초기 시연 데이터 D</tspan></text></g></g><g transform="translate(154.0234375, 102.5)" data-id="B" data-node="true" id="flowchart-B-4115" class="node default default flowchart-label"><rect height="35" width="83.5" y="-17.5" x="-41.75" ry="0" rx="0" style="" class="basic label-container"></rect><g transform="translate(0, -10)" style="" class="label"><rect></rect><text style=""><tspan class="row" x="0" dy="1em" xml:space="preserve">정책 학습</tspan></text></g></g><g transform="translate(91.015625, 187.5)" data-id="C" data-node="true" id="flowchart-C-4117" class="node default default flowchart-label"><rect height="35" width="182.03125" y="-17.5" x="-91.015625" ry="0" rx="0" style="" class="basic label-container"></rect><g transform="translate(0, -10)" style="" class="label"><rect></rect><text style=""><tspan class="row" x="0" dy="1em" xml:space="preserve">β 혼합 정책으로 롤아웃</tspan></text></g></g><g transform="translate(91.015625, 272.5)" data-id="D" data-node="true" id="flowchart-D-4119" class="node default default flowchart-label"><rect height="35" width="120" y="-17.5" x="-60" ry="0" rx="0" style="" class="basic label-container"></rect><g transform="translate(0, -10)" style="" class="label"><rect></rect><text style=""><tspan class="row" x="0" dy="1em" xml:space="preserve">방문 상태 기록</tspan></text></g></g><g transform="translate(91.015625, 377.5)" data-id="E" data-node="true" id="flowchart-E-4121" class="node default default flowchart-label"><rect height="35" width="136.109375" y="-17.5" x="-68.0546875" ry="0" rx="0" style="" class="basic label-container"></rect><g transform="translate(0, -10)" style="" class="label"><rect></rect><text style=""><tspan class="row" x="0" dy="1em" xml:space="preserve">전문가 질의·라벨</tspan></text></g></g><g transform="translate(91.015625, 462.5)" data-id="F" data-node="true" id="flowchart-F-4123" class="node default default flowchart-label"><rect height="35" width="79.046875" y="-17.5" x="-39.5234375" ry="0" rx="0" style="" class="basic label-container"></rect><g transform="translate(0, -10)" style="" class="label"><rect></rect><text style=""><tspan class="row" x="0" dy="1em" xml:space="preserve">D에 집계</tspan></text></g></g><g transform="translate(154.0234375, 619.59375)" data-id="G" data-node="true" id="flowchart-G-4125" class="node default default flowchart-label"><polygon style="" transform="translate(-89.59375,89.59375)" class="label-container" points="89.59375,0 179.1875,-89.59375 89.59375,-179.1875 0,-89.59375"></polygon><g transform="translate(0, -10)" style="" class="label"><rect></rect><text style=""><tspan class="row" x="0" dy="1em" xml:space="preserve">폐루프 성능 수렴?</tspan></text></g></g><g transform="translate(154.0234375, 796.6875)" data-id="H" data-node="true" id="flowchart-H-4129" class="node default default flowchart-label"><rect height="35" width="83.5" y="-17.5" x="-41.75" ry="0" rx="0" style="" class="basic label-container"></rect><g transform="translate(0, -10)" style="" class="label"><rect></rect><text style=""><tspan class="row" x="0" dy="1em" xml:space="preserve">최종 정책</tspan></text></g></g></g></g></g></svg>