<svg aria-roledescription="flowchart-v2" role="graphics-document document" viewBox="-8 -8 483.9296875 476" xmlns="http://www.w3.org/2000/svg" id="mmd-dark-942" width="484" height="476"><style>#mmd-dark-942{font-family:"IBM Plex Sans KR","Apple SD Gothic Neo","Malgun Gothic",system-ui,sans-serif;font-size:16px;fill:#ccc;}#mmd-dark-942 .error-icon{fill:#a44141;}#mmd-dark-942 .error-text{fill:#ddd;stroke:#ddd;}#mmd-dark-942 .edge-thickness-normal{stroke-width:2px;}#mmd-dark-942 .edge-thickness-thick{stroke-width:3.5px;}#mmd-dark-942 .edge-pattern-solid{stroke-dasharray:0;}#mmd-dark-942 .edge-pattern-dashed{stroke-dasharray:3;}#mmd-dark-942 .edge-pattern-dotted{stroke-dasharray:2;}#mmd-dark-942 .marker{fill:lightgrey;stroke:lightgrey;}#mmd-dark-942 .marker.cross{stroke:lightgrey;}#mmd-dark-942 svg{font-family:"IBM Plex Sans KR","Apple SD Gothic Neo","Malgun Gothic",system-ui,sans-serif;font-size:16px;}#mmd-dark-942 .label{font-family:"IBM Plex Sans KR","Apple SD Gothic Neo","Malgun Gothic",system-ui,sans-serif;color:#ccc;}#mmd-dark-942 .cluster-label text{fill:#F9FFFE;}#mmd-dark-942 .cluster-label span,#mmd-dark-942 p{color:#F9FFFE;}#mmd-dark-942 .label text,#mmd-dark-942 span,#mmd-dark-942 p{fill:#ccc;color:#ccc;}#mmd-dark-942 .node rect,#mmd-dark-942 .node circle,#mmd-dark-942 .node ellipse,#mmd-dark-942 .node polygon,#mmd-dark-942 .node path{fill:#1f2020;stroke:#81B1DB;stroke-width:1px;}#mmd-dark-942 .flowchart-label text{text-anchor:middle;}#mmd-dark-942 .node .katex path{fill:#000;stroke:#000;stroke-width:1px;}#mmd-dark-942 .node .label{text-align:center;}#mmd-dark-942 .node.clickable{cursor:pointer;}#mmd-dark-942 .arrowheadPath{fill:lightgrey;}#mmd-dark-942 .edgePath .path{stroke:lightgrey;stroke-width:2.0px;}#mmd-dark-942 .flowchart-link{stroke:lightgrey;fill:none;}#mmd-dark-942 .edgeLabel{background-color:hsl(0, 0%, 34.4117647059%);text-align:center;}#mmd-dark-942 .edgeLabel rect{opacity:0.5;background-color:hsl(0, 0%, 34.4117647059%);fill:hsl(0, 0%, 34.4117647059%);}#mmd-dark-942 .labelBkg{background-color:rgba(87.75, 87.75, 87.75, 0.5);}#mmd-dark-942 .cluster rect{fill:hsl(180, 1.5873015873%, 28.3529411765%);stroke:rgba(255, 255, 255, 0.25);stroke-width:1px;}#mmd-dark-942 .cluster text{fill:#F9FFFE;}#mmd-dark-942 .cluster span,#mmd-dark-942 p{color:#F9FFFE;}#mmd-dark-942 div.mermaidTooltip{position:absolute;text-align:center;max-width:200px;padding:2px;font-family:"IBM Plex Sans KR","Apple SD Gothic Neo","Malgun Gothic",system-ui,sans-serif;font-size:12px;background:hsl(20, 1.5873015873%, 12.3529411765%);border:1px solid rgba(255, 255, 255, 0.25);border-radius:2px;pointer-events:none;z-index:100;}#mmd-dark-942 .flowchartTitleText{text-anchor:middle;font-size:18px;fill:#ccc;}#mmd-dark-942 :root{--mermaid-font-family:"IBM Plex Sans KR","Apple SD Gothic Neo","Malgun Gothic",system-ui,sans-serif;}</style><g><marker orient="auto" markerHeight="12" markerWidth="12" markerUnits="userSpaceOnUse" refY="5" refX="6" viewBox="0 0 10 10" class="marker flowchart" id="mmd-dark-942_flowchart-pointEnd"><path style="stroke-width: 1; stroke-dasharray: 1, 0;" class="arrowMarkerPath" d="M 0 0 L 10 5 L 0 10 z"></path></marker><marker orient="auto" markerHeight="12" markerWidth="12" markerUnits="userSpaceOnUse" refY="5" refX="4.5" viewBox="0 0 10 10" class="marker flowchart" id="mmd-dark-942_flowchart-pointStart"><path style="stroke-width: 1; stroke-dasharray: 1, 0;" class="arrowMarkerPath" d="M 0 5 L 10 10 L 10 0 z"></path></marker><marker orient="auto" markerHeight="11" markerWidth="11" markerUnits="userSpaceOnUse" refY="5" refX="11" viewBox="0 0 10 10" class="marker flowchart" id="mmd-dark-942_flowchart-circleEnd"><circle style="stroke-width: 1; stroke-dasharray: 1, 0;" class="arrowMarkerPath" r="5" cy="5" cx="5"></circle></marker><marker orient="auto" markerHeight="11" markerWidth="11" markerUnits="userSpaceOnUse" refY="5" refX="-1" viewBox="0 0 10 10" class="marker flowchart" id="mmd-dark-942_flowchart-circleStart"><circle style="stroke-width: 1; stroke-dasharray: 1, 0;" class="arrowMarkerPath" r="5" cy="5" cx="5"></circle></marker><marker orient="auto" markerHeight="11" markerWidth="11" markerUnits="userSpaceOnUse" refY="5.2" refX="12" viewBox="0 0 11 11" class="marker cross flowchart" id="mmd-dark-942_flowchart-crossEnd"><path style="stroke-width: 2; stroke-dasharray: 1, 0;" class="arrowMarkerPath" d="M 1,1 l 9,9 M 10,1 l -9,9"></path></marker><marker orient="auto" markerHeight="11" markerWidth="11" markerUnits="userSpaceOnUse" refY="5.2" refX="-1" viewBox="0 0 11 11" class="marker cross flowchart" id="mmd-dark-942_flowchart-crossStart"><path style="stroke-width: 2; stroke-dasharray: 1, 0;" class="arrowMarkerPath" d="M 1,1 l 9,9 M 10,1 l -9,9"></path></marker><g class="root"><g class="clusters"></g><g class="edgePaths"><path marker-end="url(#mmd-dark-942_flowchart-pointEnd)" style="fill:none;" class="edge-thickness-normal edge-pattern-solid flowchart-link LS-R LE-S1" id="L-R-S1-0" d="M175.748,35L163.298,39.167C150.848,43.333,125.947,51.667,113.497,62.917C101.047,74.167,101.047,88.333,101.047,102.5C101.047,116.667,101.047,130.833,101.047,141.2C101.047,151.567,101.047,158.133,101.047,161.417L101.047,164.7"></path><path marker-end="url(#mmd-dark-942_flowchart-pointEnd)" style="fill:none;" class="edge-thickness-normal edge-pattern-solid flowchart-link LS-R LE-S2" id="L-R-S2-0" d="M280.33,35L292.78,39.167C305.23,43.333,330.131,51.667,342.581,59.117C355.031,66.567,355.031,73.133,355.031,76.417L355.031,79.7"></path><path marker-end="url(#mmd-dark-942_flowchart-pointEnd)" style="fill:none;" class="edge-thickness-normal edge-pattern-solid flowchart-link LS-S1 LE-RF" id="L-S1-RF-0" d="M101.047,205L101.047,209.167C101.047,213.333,101.047,221.667,101.047,229.117C101.047,236.567,101.047,243.133,101.047,246.417L101.047,249.7"></path><path marker-end="url(#mmd-dark-942_flowchart-pointEnd)" style="fill:none;" class="edge-thickness-normal edge-pattern-solid flowchart-link LS-S2 LE-PL" id="L-S2-PL-0" d="M355.031,120L355.031,124.167C355.031,128.333,355.031,136.667,355.031,144.117C355.031,151.567,355.031,158.133,355.031,161.417L355.031,164.7"></path><path marker-end="url(#mmd-dark-942_flowchart-pointEnd)" style="fill:none;" class="edge-thickness-normal edge-pattern-solid flowchart-link LS-PL LE-VS" id="L-PL-VS-0" d="M355.031,205L355.031,209.167C355.031,213.333,355.031,221.667,355.031,229.117C355.031,236.567,355.031,243.133,355.031,246.417L355.031,249.7"></path><path marker-end="url(#mmd-dark-942_flowchart-pointEnd)" style="fill:none;" class="edge-thickness-normal edge-pattern-solid flowchart-link LS-RF LE-SC" id="L-RF-SC-0" d="M101.047,290L101.047,294.167C101.047,298.333,101.047,306.667,112.659,314.72C124.272,322.773,147.497,330.545,159.11,334.432L170.722,338.318"></path><path marker-end="url(#mmd-dark-942_flowchart-pointEnd)" style="fill:none;" class="edge-thickness-normal edge-pattern-solid flowchart-link LS-VS LE-SC" id="L-VS-SC-0" d="M355.031,290L355.031,294.167C355.031,298.333,355.031,306.667,343.419,314.72C331.806,322.773,308.581,330.545,296.969,334.432L285.356,338.318"></path><path marker-end="url(#mmd-dark-942_flowchart-pointEnd)" style="fill:none;" class="edge-thickness-normal edge-pattern-solid flowchart-link LS-SC LE-ST" id="L-SC-ST-0" d="M228.039,375L228.039,379.167C228.039,383.333,228.039,391.667,228.039,399.117C228.039,406.567,228.039,413.133,228.039,416.417L228.039,419.7"></path></g><g class="edgeLabels"><g class="edgeLabel"><g transform="translate(0, 0)" class="label"><rect height="0" width="0" ry="0" rx="0"></rect><text style=""><tspan class="row" x="0" dy="1em" xml:space="preserve"></tspan></text></g></g><g class="edgeLabel"><g transform="translate(0, 0)" class="label"><rect height="0" width="0" ry="0" rx="0"></rect><text style=""><tspan class="row" x="0" dy="1em" xml:space="preserve"></tspan></text></g></g><g class="edgeLabel"><g transform="translate(0, 0)" class="label"><rect height="0" width="0" ry="0" rx="0"></rect><text style=""><tspan class="row" x="0" dy="1em" xml:space="preserve"></tspan></text></g></g><g class="edgeLabel"><g transform="translate(0, 0)" class="label"><rect height="0" width="0" ry="0" rx="0"></rect><text style=""><tspan class="row" x="0" dy="1em" xml:space="preserve"></tspan></text></g></g><g class="edgeLabel"><g transform="translate(0, 0)" class="label"><rect height="0" width="0" ry="0" rx="0"></rect><text style=""><tspan class="row" x="0" dy="1em" xml:space="preserve"></tspan></text></g></g><g class="edgeLabel"><g transform="translate(0, 0)" class="label"><rect height="0" width="0" ry="0" rx="0"></rect><text style=""><tspan class="row" x="0" dy="1em" xml:space="preserve"></tspan></text></g></g><g class="edgeLabel"><g transform="translate(0, 0)" class="label"><rect height="0" width="0" ry="0" rx="0"></rect><text style=""><tspan class="row" x="0" dy="1em" xml:space="preserve"></tspan></text></g></g><g class="edgeLabel"><g transform="translate(0, 0)" class="label"><rect height="0" width="0" ry="0" rx="0"></rect><text style=""><tspan class="row" x="0" dy="1em" xml:space="preserve"></tspan></text></g></g></g><g class="nodes"><g transform="translate(228.0390625, 17.5)" data-id="R" data-node="true" id="flowchart-R-4578" class="node default default flowchart-label"><rect height="35" width="179.671875" y="-17.5" x="-89.8359375" ry="0" rx="0" style="" class="basic label-container"></rect><g transform="translate(0, -10)" style="" class="label"><rect></rect><text style=""><tspan class="row" x="0" dy="1em" xml:space="preserve">루트 레이어 (시나리오)</tspan></text></g></g><g transform="translate(101.046875, 187.5)" data-id="S1" data-node="true" id="flowchart-S1-4579" class="node default default flowchart-label"><rect height="35" width="140.96875" y="-17.5" x="-70.484375" ry="0" rx="0" style="" class="basic label-container"></rect><g transform="translate(0, -10)" style="" class="label"><rect></rect><text style=""><tspan class="row" x="0" dy="1em" xml:space="preserve">sublayer: 환경 팀</tspan></text></g></g><g transform="translate(355.03125, 102.5)" data-id="S2" data-node="true" id="flowchart-S2-4581" class="node default default flowchart-label"><rect height="35" width="140.96875" y="-17.5" x="-70.484375" ry="0" rx="0" style="" class="basic label-container"></rect><g transform="translate(0, -10)" style="" class="label"><rect></rect><text style=""><tspan class="row" x="0" dy="1em" xml:space="preserve">sublayer: 교통 팀</tspan></text></g></g><g transform="translate(101.046875, 272.5)" data-id="RF" data-node="true" id="flowchart-RF-4583" class="node default default flowchart-label"><rect height="35" width="202.09375" y="-17.5" x="-101.046875" ry="0" rx="0" style="" class="basic label-container"></rect><g transform="translate(0, -10)" style="" class="label"><rect></rect><text style=""><tspan class="row" x="0" dy="1em" xml:space="preserve">reference: 도로·건물 자산</tspan></text></g></g><g transform="translate(355.03125, 187.5)" data-id="PL" data-node="true" id="flowchart-PL-4585" class="node default default flowchart-label"><rect height="35" width="225.796875" y="-17.5" x="-112.8984375" ry="0" rx="0" style="" class="basic label-container"></rect><g transform="translate(0, -10)" style="" class="label"><rect></rect><text style=""><tspan class="row" x="0" dy="1em" xml:space="preserve">payload: 차량 자산 지연 로딩</tspan></text></g></g><g transform="translate(355.03125, 272.5)" data-id="VS" data-node="true" id="flowchart-VS-4587" class="node default default flowchart-label"><rect height="35" width="205.875" y="-17.5" x="-102.9375" ry="0" rx="0" style="" class="basic label-container"></rect><g transform="translate(0, -10)" style="" class="label"><rect></rect><text style=""><tspan class="row" x="0" dy="1em" xml:space="preserve">variantSet: 차종·도색·날씨</tspan></text></g></g><g transform="translate(228.0390625, 357.5)" data-id="SC" data-node="true" id="flowchart-SC-4589" class="node default default flowchart-label"><rect height="35" width="208.609375" y="-17.5" x="-104.3046875" ry="0" rx="0" style="" class="basic label-container"></rect><g transform="translate(0, -10)" style="" class="label"><rect></rect><text style=""><tspan class="row" x="0" dy="1em" xml:space="preserve">UsdPhysics·시맨틱 스키마</tspan></text></g></g><g transform="translate(228.0390625, 442.5)" data-id="ST" data-node="true" id="flowchart-ST-4593" class="node default default flowchart-label"><rect height="35" width="215.46875" y="-17.5" x="-107.734375" ry="0" rx="0" style="" class="basic label-container"></rect><g transform="translate(0, -10)" style="" class="label"><rect></rect><text style=""><tspan class="row" x="0" dy="1em" xml:space="preserve">합성된 Stage → 시뮬레이터</tspan></text></g></g></g></g></g></svg>