<svg aria-roledescription="flowchart-v2" role="graphics-document document" viewBox="-8 -8 1434.796875 136" xmlns="http://www.w3.org/2000/svg" id="mmd-light-156" width="1435" height="136"><style>#mmd-light-156{font-family:"IBM Plex Sans KR","Apple SD Gothic Neo","Malgun Gothic",system-ui,sans-serif;font-size:16px;fill:#000000;}#mmd-light-156 .error-icon{fill:#552222;}#mmd-light-156 .error-text{fill:#552222;stroke:#552222;}#mmd-light-156 .edge-thickness-normal{stroke-width:2px;}#mmd-light-156 .edge-thickness-thick{stroke-width:3.5px;}#mmd-light-156 .edge-pattern-solid{stroke-dasharray:0;}#mmd-light-156 .edge-pattern-dashed{stroke-dasharray:3;}#mmd-light-156 .edge-pattern-dotted{stroke-dasharray:2;}#mmd-light-156 .marker{fill:#666;stroke:#666;}#mmd-light-156 .marker.cross{stroke:#666;}#mmd-light-156 svg{font-family:"IBM Plex Sans KR","Apple SD Gothic Neo","Malgun Gothic",system-ui,sans-serif;font-size:16px;}#mmd-light-156 .label{font-family:"IBM Plex Sans KR","Apple SD Gothic Neo","Malgun Gothic",system-ui,sans-serif;color:#000000;}#mmd-light-156 .cluster-label text{fill:#333;}#mmd-light-156 .cluster-label span,#mmd-light-156 p{color:#333;}#mmd-light-156 .label text,#mmd-light-156 span,#mmd-light-156 p{fill:#000000;color:#000000;}#mmd-light-156 .node rect,#mmd-light-156 .node circle,#mmd-light-156 .node ellipse,#mmd-light-156 .node polygon,#mmd-light-156 .node path{fill:#eee;stroke:#999;stroke-width:1px;}#mmd-light-156 .flowchart-label text{text-anchor:middle;}#mmd-light-156 .node .katex path{fill:#000;stroke:#000;stroke-width:1px;}#mmd-light-156 .node .label{text-align:center;}#mmd-light-156 .node.clickable{cursor:pointer;}#mmd-light-156 .arrowheadPath{fill:#333333;}#mmd-light-156 .edgePath .path{stroke:#666;stroke-width:2.0px;}#mmd-light-156 .flowchart-link{stroke:#666;fill:none;}#mmd-light-156 .edgeLabel{background-color:white;text-align:center;}#mmd-light-156 .edgeLabel rect{opacity:0.5;background-color:white;fill:white;}#mmd-light-156 .labelBkg{background-color:rgba(255, 255, 255, 0.5);}#mmd-light-156 .cluster rect{fill:hsl(0, 0%, 98.9215686275%);stroke:#707070;stroke-width:1px;}#mmd-light-156 .cluster text{fill:#333;}#mmd-light-156 .cluster span,#mmd-light-156 p{color:#333;}#mmd-light-156 div.mermaidTooltip{position:absolute;text-align:center;max-width:200px;padding:2px;font-family:"IBM Plex Sans KR","Apple SD Gothic Neo","Malgun Gothic",system-ui,sans-serif;font-size:12px;background:hsl(-160, 0%, 93.3333333333%);border:1px solid #707070;border-radius:2px;pointer-events:none;z-index:100;}#mmd-light-156 .flowchartTitleText{text-anchor:middle;font-size:18px;fill:#000000;}#mmd-light-156 :root{--mermaid-font-family:"IBM Plex Sans KR","Apple SD Gothic Neo","Malgun Gothic",system-ui,sans-serif;}</style><g><marker orient="auto" markerHeight="12" markerWidth="12" markerUnits="userSpaceOnUse" refY="5" refX="6" viewBox="0 0 10 10" class="marker flowchart" id="mmd-light-156_flowchart-pointEnd"><path style="stroke-width: 1; stroke-dasharray: 1, 0;" class="arrowMarkerPath" d="M 0 0 L 10 5 L 0 10 z"></path></marker><marker orient="auto" markerHeight="12" markerWidth="12" markerUnits="userSpaceOnUse" refY="5" refX="4.5" viewBox="0 0 10 10" class="marker flowchart" id="mmd-light-156_flowchart-pointStart"><path style="stroke-width: 1; stroke-dasharray: 1, 0;" class="arrowMarkerPath" d="M 0 5 L 10 10 L 10 0 z"></path></marker><marker orient="auto" markerHeight="11" markerWidth="11" markerUnits="userSpaceOnUse" refY="5" refX="11" viewBox="0 0 10 10" class="marker flowchart" id="mmd-light-156_flowchart-circleEnd"><circle style="stroke-width: 1; stroke-dasharray: 1, 0;" class="arrowMarkerPath" r="5" cy="5" cx="5"></circle></marker><marker orient="auto" markerHeight="11" markerWidth="11" markerUnits="userSpaceOnUse" refY="5" refX="-1" viewBox="0 0 10 10" class="marker flowchart" id="mmd-light-156_flowchart-circleStart"><circle style="stroke-width: 1; stroke-dasharray: 1, 0;" class="arrowMarkerPath" r="5" cy="5" cx="5"></circle></marker><marker orient="auto" markerHeight="11" markerWidth="11" markerUnits="userSpaceOnUse" refY="5.2" refX="12" viewBox="0 0 11 11" class="marker cross flowchart" id="mmd-light-156_flowchart-crossEnd"><path style="stroke-width: 2; stroke-dasharray: 1, 0;" class="arrowMarkerPath" d="M 1,1 l 9,9 M 10,1 l -9,9"></path></marker><marker orient="auto" markerHeight="11" markerWidth="11" markerUnits="userSpaceOnUse" refY="5.2" refX="-1" viewBox="0 0 11 11" class="marker cross flowchart" id="mmd-light-156_flowchart-crossStart"><path style="stroke-width: 2; stroke-dasharray: 1, 0;" class="arrowMarkerPath" d="M 1,1 l 9,9 M 10,1 l -9,9"></path></marker><g class="root"><g class="clusters"></g><g class="edgePaths"><path marker-end="url(#mmd-light-156_flowchart-pointEnd)" style="fill:none;" class="edge-thickness-normal edge-pattern-solid flowchart-link LS-PK LE-AS" id="L-PK-AS-0" d="M96.766,60L100.932,60C105.099,60,113.432,60,120.882,60C128.332,60,134.899,60,138.182,60L141.466,60"></path><path marker-end="url(#mmd-light-156_flowchart-pointEnd)" style="fill:none;" class="edge-thickness-normal edge-pattern-solid flowchart-link LS-AS LE-DK" id="L-AS-DK-0" d="M230.266,60L234.432,60C238.599,60,246.932,60,254.382,60C261.832,60,268.399,60,271.682,60L274.966,60"></path><path marker-end="url(#mmd-light-156_flowchart-pointEnd)" style="fill:none;" class="edge-thickness-normal edge-pattern-solid flowchart-link LS-DK LE-MG" id="L-DK-MG-0" d="M400.266,60L404.432,60C408.599,60,416.932,60,424.382,60C431.832,60,438.399,60,441.682,60L444.966,60"></path><path marker-end="url(#mmd-light-156_flowchart-pointEnd)" style="fill:none;" class="edge-thickness-normal edge-pattern-solid flowchart-link LS-MG LE-FL" id="L-MG-FL-0" d="M583.531,60L587.698,60C591.865,60,600.198,60,607.648,60C615.098,60,621.665,60,624.948,60L628.231,60"></path><path marker-end="url(#mmd-light-156_flowchart-pointEnd)" style="fill:none;" class="edge-thickness-normal edge-pattern-solid flowchart-link LS-FL LE-GR" id="L-FL-GR-0" d="M728.608,77.5L736.947,81.667C745.286,85.833,761.963,94.167,773.585,98.333C785.207,102.5,791.774,102.5,795.057,102.5L798.341,102.5"></path><path marker-end="url(#mmd-light-156_flowchart-pointEnd)" style="fill:none;" class="edge-thickness-normal edge-pattern-solid flowchart-link LS-FL LE-DL" id="L-FL-DL-0" d="M728.608,42.5L736.947,38.333C745.286,34.167,761.963,25.833,781.427,21.667C800.891,17.5,823.141,17.5,845.391,17.5C867.641,17.5,889.891,17.5,907.855,17.5C925.819,17.5,939.498,17.5,946.337,17.5L953.177,17.5"></path><path marker-end="url(#mmd-light-156_flowchart-pointEnd)" style="fill:none;" class="edge-thickness-normal edge-pattern-solid flowchart-link LS-GR LE-CL" id="L-GR-CL-0" d="M887.141,102.5L891.307,102.5C895.474,102.5,903.807,102.5,911.257,102.5C918.707,102.5,925.274,102.5,928.557,102.5L931.841,102.5"></path><path marker-end="url(#mmd-light-156_flowchart-pointEnd)" style="fill:none;" class="edge-thickness-normal edge-pattern-solid flowchart-link LS-DL LE-OUT" id="L-DL-OUT-0" d="M1104.414,17.5L1112.137,17.5C1119.859,17.5,1135.305,17.5,1150.063,21.251C1164.822,25.002,1178.894,32.504,1185.93,36.256L1192.967,40.007"></path><path marker-end="url(#mmd-light-156_flowchart-pointEnd)" style="fill:none;" class="edge-thickness-normal edge-pattern-solid flowchart-link LS-CL LE-OUT" id="L-CL-OUT-0" d="M1125.75,102.5L1129.917,102.5C1134.083,102.5,1142.417,102.5,1153.619,98.749C1164.822,94.998,1178.894,87.496,1185.93,83.744L1192.967,79.993"></path><path marker-end="url(#mmd-light-156_flowchart-pointEnd)" style="fill:none;" class="edge-thickness-normal edge-pattern-solid flowchart-link LS-OUT LE-TR" id="L-OUT-TR-0" d="M1285.188,60L1289.354,60C1293.521,60,1301.854,60,1309.304,60C1316.754,60,1323.321,60,1326.604,60L1329.888,60"></path></g><g class="edgeLabels"><g class="edgeLabel"><g transform="translate(0, 0)" class="label"><rect height="0" width="0" ry="0" rx="0"></rect><text style=""><tspan class="row" x="0" dy="1em" xml:space="preserve"></tspan></text></g></g><g class="edgeLabel"><g transform="translate(0, 0)" class="label"><rect height="0" width="0" ry="0" rx="0"></rect><text style=""><tspan class="row" x="0" dy="1em" xml:space="preserve"></tspan></text></g></g><g class="edgeLabel"><g transform="translate(0, 0)" class="label"><rect height="0" width="0" ry="0" rx="0"></rect><text style=""><tspan class="row" x="0" dy="1em" xml:space="preserve"></tspan></text></g></g><g class="edgeLabel"><g transform="translate(0, 0)" class="label"><rect height="0" width="0" ry="0" rx="0"></rect><text style=""><tspan class="row" x="0" dy="1em" xml:space="preserve"></tspan></text></g></g><g class="edgeLabel"><g transform="translate(0, 0)" class="label"><rect height="0" width="0" ry="0" rx="0"></rect><text style=""><tspan class="row" x="0" dy="1em" xml:space="preserve"></tspan></text></g></g><g class="edgeLabel"><g transform="translate(0, 0)" class="label"><rect height="0" width="0" ry="0" rx="0"></rect><text style=""><tspan class="row" x="0" dy="1em" xml:space="preserve"></tspan></text></g></g><g class="edgeLabel"><g transform="translate(0, 0)" class="label"><rect height="0" width="0" ry="0" rx="0"></rect><text style=""><tspan class="row" x="0" dy="1em" xml:space="preserve"></tspan></text></g></g><g class="edgeLabel"><g transform="translate(0, 0)" class="label"><rect height="0" width="0" ry="0" rx="0"></rect><text style=""><tspan class="row" x="0" dy="1em" xml:space="preserve"></tspan></text></g></g><g class="edgeLabel"><g transform="translate(0, 0)" class="label"><rect height="0" width="0" ry="0" rx="0"></rect><text style=""><tspan class="row" x="0" dy="1em" xml:space="preserve"></tspan></text></g></g><g class="edgeLabel"><g transform="translate(0, 0)" class="label"><rect height="0" width="0" ry="0" rx="0"></rect><text style=""><tspan class="row" x="0" dy="1em" xml:space="preserve"></tspan></text></g></g></g><g class="nodes"><g transform="translate(48.3828125, 60)" data-id="PK" data-node="true" id="flowchart-PK-322" class="node default default flowchart-label"><rect height="35" width="96.765625" y="-17.5" x="-48.3828125" ry="0" rx="0" style="" class="basic label-container"></rect><g transform="translate(0, -10)" style="" class="label"><rect></rect><text style=""><tspan class="row" x="0" dy="1em" xml:space="preserve">LiDAR 패킷</tspan></text></g></g><g transform="translate(188.515625, 60)" data-id="AS" data-node="true" id="flowchart-AS-323" class="node default default flowchart-label"><rect height="35" width="83.5" y="-17.5" x="-41.75" ry="0" rx="0" style="" class="basic label-container"></rect><g transform="translate(0, -10)" style="" class="label"><rect></rect><text style=""><tspan class="row" x="0" dy="1em" xml:space="preserve">점군 조립</tspan></text></g></g><g transform="translate(340.265625, 60)" data-id="DK" data-node="true" id="flowchart-DK-325" class="node default default flowchart-label"><rect height="35" width="120" y="-17.5" x="-60" ry="0" rx="0" style="" class="basic label-container"></rect><g transform="translate(0, -10)" style="" class="label"><rect></rect><text style=""><tspan class="row" x="0" dy="1em" xml:space="preserve">모션 왜곡 보정</tspan></text></g></g><g transform="translate(516.8984375, 60)" data-id="MG" data-node="true" id="flowchart-MG-327" class="node default default flowchart-label"><rect height="35" width="133.265625" y="-17.5" x="-66.6328125" ry="0" rx="0" style="" class="basic label-container"></rect><g transform="translate(0, -10)" style="" class="label"><rect></rect><text style=""><tspan class="row" x="0" dy="1em" xml:space="preserve">다중 LiDAR 병합</tspan></text></g></g><g transform="translate(693.5859375, 60)" data-id="FL" data-node="true" id="flowchart-FL-329" class="node default default flowchart-label"><rect height="35" width="120.109375" y="-17.5" x="-60.0546875" ry="0" rx="0" style="" class="basic label-container"></rect><g transform="translate(0, -10)" style="" class="label"><rect></rect><text style=""><tspan class="row" x="0" dy="1em" xml:space="preserve">범위·잡음 필터</tspan></text></g></g><g transform="translate(845.390625, 102.5)" data-id="GR" data-node="true" id="flowchart-GR-331" class="node default default flowchart-label"><rect height="35" width="83.5" y="-17.5" x="-41.75" ry="0" rx="0" style="" class="basic label-container"></rect><g transform="translate(0, -10)" style="" class="label"><rect></rect><text style=""><tspan class="row" x="0" dy="1em" xml:space="preserve">지면 제거</tspan></text></g></g><g transform="translate(1031.4453125, 17.5)" data-id="DL" data-node="true" id="flowchart-DL-333" class="node default default flowchart-label"><rect height="35" width="145.9375" y="-17.5" x="-72.96875" ry="0" rx="0" style="" class="basic label-container"></rect><g transform="translate(0, -10)" style="" class="label"><rect></rect><text style=""><tspan class="row" x="0" dy="1em" xml:space="preserve">학습 기반 3D 검출</tspan></text></g></g><g transform="translate(1031.4453125, 102.5)" data-id="CL" data-node="true" id="flowchart-CL-335" class="node default default flowchart-label"><rect height="35" width="188.609375" y="-17.5" x="-94.3046875" ry="0" rx="0" style="" class="basic label-container"></rect><g transform="translate(0, -10)" style="" class="label"><rect></rect><text style=""><tspan class="row" x="0" dy="1em" xml:space="preserve">클러스터링: 미지 장애물</tspan></text></g></g><g transform="translate(1230.46875, 60)" data-id="OUT" data-node="true" id="flowchart-OUT-337" class="node default default flowchart-label"><rect height="35" width="109.4375" y="-17.5" x="-54.71875" ry="0" rx="0" style="" class="basic label-container"></rect><g transform="translate(0, -10)" style="" class="label"><rect></rect><text style=""><tspan class="row" x="0" dy="1em" xml:space="preserve">3D 객체 목록</tspan></text></g></g><g transform="translate(1376.9921875, 60)" data-id="TR" data-node="true" id="flowchart-TR-341" class="node default default flowchart-label"><rect height="35" width="83.609375" y="-17.5" x="-41.8046875" ry="0" rx="0" style="" class="basic label-container"></rect><g transform="translate(0, -10)" style="" class="label"><rect></rect><text style=""><tspan class="row" x="0" dy="1em" xml:space="preserve">추적·융합</tspan></text></g></g></g></g></g></svg>