<svg aria-roledescription="flowchart-v2" role="graphics-document document" viewBox="-8 -8 1477.5625 136" xmlns="http://www.w3.org/2000/svg" id="mmd-light-943" width="1478" height="136"><style>#mmd-light-943{font-family:"IBM Plex Sans KR","Apple SD Gothic Neo","Malgun Gothic",system-ui,sans-serif;font-size:16px;fill:#000000;}#mmd-light-943 .error-icon{fill:#552222;}#mmd-light-943 .error-text{fill:#552222;stroke:#552222;}#mmd-light-943 .edge-thickness-normal{stroke-width:2px;}#mmd-light-943 .edge-thickness-thick{stroke-width:3.5px;}#mmd-light-943 .edge-pattern-solid{stroke-dasharray:0;}#mmd-light-943 .edge-pattern-dashed{stroke-dasharray:3;}#mmd-light-943 .edge-pattern-dotted{stroke-dasharray:2;}#mmd-light-943 .marker{fill:#666;stroke:#666;}#mmd-light-943 .marker.cross{stroke:#666;}#mmd-light-943 svg{font-family:"IBM Plex Sans KR","Apple SD Gothic Neo","Malgun Gothic",system-ui,sans-serif;font-size:16px;}#mmd-light-943 .label{font-family:"IBM Plex Sans KR","Apple SD Gothic Neo","Malgun Gothic",system-ui,sans-serif;color:#000000;}#mmd-light-943 .cluster-label text{fill:#333;}#mmd-light-943 .cluster-label span,#mmd-light-943 p{color:#333;}#mmd-light-943 .label text,#mmd-light-943 span,#mmd-light-943 p{fill:#000000;color:#000000;}#mmd-light-943 .node rect,#mmd-light-943 .node circle,#mmd-light-943 .node ellipse,#mmd-light-943 .node polygon,#mmd-light-943 .node path{fill:#eee;stroke:#999;stroke-width:1px;}#mmd-light-943 .flowchart-label text{text-anchor:middle;}#mmd-light-943 .node .katex path{fill:#000;stroke:#000;stroke-width:1px;}#mmd-light-943 .node .label{text-align:center;}#mmd-light-943 .node.clickable{cursor:pointer;}#mmd-light-943 .arrowheadPath{fill:#333333;}#mmd-light-943 .edgePath .path{stroke:#666;stroke-width:2.0px;}#mmd-light-943 .flowchart-link{stroke:#666;fill:none;}#mmd-light-943 .edgeLabel{background-color:white;text-align:center;}#mmd-light-943 .edgeLabel rect{opacity:0.5;background-color:white;fill:white;}#mmd-light-943 .labelBkg{background-color:rgba(255, 255, 255, 0.5);}#mmd-light-943 .cluster rect{fill:hsl(0, 0%, 98.9215686275%);stroke:#707070;stroke-width:1px;}#mmd-light-943 .cluster text{fill:#333;}#mmd-light-943 .cluster span,#mmd-light-943 p{color:#333;}#mmd-light-943 div.mermaidTooltip{position:absolute;text-align:center;max-width:200px;padding:2px;font-family:"IBM Plex Sans KR","Apple SD Gothic Neo","Malgun Gothic",system-ui,sans-serif;font-size:12px;background:hsl(-160, 0%, 93.3333333333%);border:1px solid #707070;border-radius:2px;pointer-events:none;z-index:100;}#mmd-light-943 .flowchartTitleText{text-anchor:middle;font-size:18px;fill:#000000;}#mmd-light-943 :root{--mermaid-font-family:"IBM Plex Sans KR","Apple SD Gothic Neo","Malgun Gothic",system-ui,sans-serif;}</style><g><marker orient="auto" markerHeight="12" markerWidth="12" markerUnits="userSpaceOnUse" refY="5" refX="6" viewBox="0 0 10 10" class="marker flowchart" id="mmd-light-943_flowchart-pointEnd"><path style="stroke-width: 1; stroke-dasharray: 1, 0;" class="arrowMarkerPath" d="M 0 0 L 10 5 L 0 10 z"></path></marker><marker orient="auto" markerHeight="12" markerWidth="12" markerUnits="userSpaceOnUse" refY="5" refX="4.5" viewBox="0 0 10 10" class="marker flowchart" id="mmd-light-943_flowchart-pointStart"><path style="stroke-width: 1; stroke-dasharray: 1, 0;" class="arrowMarkerPath" d="M 0 5 L 10 10 L 10 0 z"></path></marker><marker orient="auto" markerHeight="11" markerWidth="11" markerUnits="userSpaceOnUse" refY="5" refX="11" viewBox="0 0 10 10" class="marker flowchart" id="mmd-light-943_flowchart-circleEnd"><circle style="stroke-width: 1; stroke-dasharray: 1, 0;" class="arrowMarkerPath" r="5" cy="5" cx="5"></circle></marker><marker orient="auto" markerHeight="11" markerWidth="11" markerUnits="userSpaceOnUse" refY="5" refX="-1" viewBox="0 0 10 10" class="marker flowchart" id="mmd-light-943_flowchart-circleStart"><circle style="stroke-width: 1; stroke-dasharray: 1, 0;" class="arrowMarkerPath" r="5" cy="5" cx="5"></circle></marker><marker orient="auto" markerHeight="11" markerWidth="11" markerUnits="userSpaceOnUse" refY="5.2" refX="12" viewBox="0 0 11 11" class="marker cross flowchart" id="mmd-light-943_flowchart-crossEnd"><path style="stroke-width: 2; stroke-dasharray: 1, 0;" class="arrowMarkerPath" d="M 1,1 l 9,9 M 10,1 l -9,9"></path></marker><marker orient="auto" markerHeight="11" markerWidth="11" markerUnits="userSpaceOnUse" refY="5.2" refX="-1" viewBox="0 0 11 11" class="marker cross flowchart" id="mmd-light-943_flowchart-crossStart"><path style="stroke-width: 2; stroke-dasharray: 1, 0;" class="arrowMarkerPath" d="M 1,1 l 9,9 M 10,1 l -9,9"></path></marker><g class="root"><g class="clusters"></g><g class="edgePaths"><path marker-end="url(#mmd-light-943_flowchart-pointEnd)" style="fill:none;" class="edge-thickness-normal edge-pattern-solid flowchart-link LS-M LE-G" id="L-M-G-0" d="M136,60L140.167,60C144.333,60,152.667,60,160.117,60C167.567,60,174.133,60,177.417,60L180.7,60"></path><path marker-end="url(#mmd-light-943_flowchart-pointEnd)" style="fill:none;" class="edge-thickness-normal edge-pattern-solid flowchart-link LS-G LE-H" id="L-G-H-0" d="M310.548,42.5L320.933,38.333C331.318,34.167,352.089,25.833,365.757,21.667C379.426,17.5,385.993,17.5,389.276,17.5L392.559,17.5"></path><path marker-end="url(#mmd-light-943_flowchart-pointEnd)" style="fill:none;" class="edge-thickness-normal edge-pattern-solid flowchart-link LS-H LE-X" id="L-H-X-0" d="M611.313,17.5L615.479,17.5C619.646,17.5,627.979,17.5,638.078,17.5C648.176,17.5,660.04,17.5,665.971,17.5L671.903,17.5"></path><path marker-end="url(#mmd-light-943_flowchart-pointEnd)" style="fill:none;" class="edge-thickness-normal edge-pattern-solid flowchart-link LS-G LE-U" id="L-G-U-0" d="M310.548,77.5L320.933,81.667C331.318,85.833,352.089,94.167,384.429,98.333C416.768,102.5,460.677,102.5,504.586,102.5C548.495,102.5,592.404,102.5,617.641,102.5C642.879,102.5,649.446,102.5,652.729,102.5L656.013,102.5"></path><path marker-end="url(#mmd-light-943_flowchart-pointEnd)" style="fill:none;" class="edge-thickness-normal edge-pattern-solid flowchart-link LS-X LE-A" id="L-X-A-0" d="M816.313,17.5L823.128,17.5C829.943,17.5,843.573,17.5,860.609,21.355C877.644,25.21,898.085,32.92,908.306,36.775L918.526,40.63"></path><path marker-end="url(#mmd-light-943_flowchart-pointEnd)" style="fill:none;" class="edge-thickness-normal edge-pattern-solid flowchart-link LS-U LE-A" id="L-U-A-0" d="M832.203,102.5L836.37,102.5C840.536,102.5,848.87,102.5,863.257,98.645C877.644,94.79,898.085,87.08,908.306,83.225L918.526,79.37"></path><path marker-end="url(#mmd-light-943_flowchart-pointEnd)" style="fill:none;" class="edge-thickness-normal edge-pattern-solid flowchart-link LS-A LE-S" id="L-A-S-0" d="M1057.563,60L1061.729,60C1065.896,60,1074.229,60,1081.679,60C1089.129,60,1095.696,60,1098.979,60L1102.263,60"></path><path marker-end="url(#mmd-light-943_flowchart-pointEnd)" style="fill:none;" class="edge-thickness-normal edge-pattern-solid flowchart-link LS-S LE-V" id="L-S-V-0" d="M1255.063,60L1259.229,60C1263.396,60,1271.729,60,1279.179,60C1286.629,60,1293.196,60,1296.479,60L1299.763,60"></path></g><g class="edgeLabels"><g class="edgeLabel"><g transform="translate(0, 0)" class="label"><rect height="0" width="0" ry="0" rx="0"></rect><text style=""><tspan class="row" x="0" dy="1em" xml:space="preserve"></tspan></text></g></g><g class="edgeLabel"><g transform="translate(0, 0)" class="label"><rect height="0" width="0" ry="0" rx="0"></rect><text style=""><tspan class="row" x="0" dy="1em" xml:space="preserve"></tspan></text></g></g><g class="edgeLabel"><g transform="translate(0, 0)" class="label"><rect height="0" width="0" ry="0" rx="0"></rect><text style=""><tspan class="row" x="0" dy="1em" xml:space="preserve"></tspan></text></g></g><g class="edgeLabel"><g transform="translate(0, 0)" class="label"><rect height="0" width="0" ry="0" rx="0"></rect><text style=""><tspan class="row" x="0" dy="1em" xml:space="preserve"></tspan></text></g></g><g class="edgeLabel"><g transform="translate(0, 0)" class="label"><rect height="0" width="0" ry="0" rx="0"></rect><text style=""><tspan class="row" x="0" dy="1em" xml:space="preserve"></tspan></text></g></g><g class="edgeLabel"><g transform="translate(0, 0)" class="label"><rect height="0" width="0" ry="0" rx="0"></rect><text style=""><tspan class="row" x="0" dy="1em" xml:space="preserve"></tspan></text></g></g><g class="edgeLabel"><g transform="translate(0, 0)" class="label"><rect height="0" width="0" ry="0" rx="0"></rect><text style=""><tspan class="row" x="0" dy="1em" xml:space="preserve"></tspan></text></g></g><g class="edgeLabel"><g transform="translate(0, 0)" class="label"><rect height="0" width="0" ry="0" rx="0"></rect><text style=""><tspan class="row" x="0" dy="1em" xml:space="preserve"></tspan></text></g></g></g><g class="nodes"><g transform="translate(68, 60)" data-id="M" data-node="true" id="flowchart-M-1646" class="node default default flowchart-label"><rect height="35" width="136" y="-17.5" x="-68" ry="0" rx="0" style="" class="basic label-container"></rect><g transform="translate(0, -10)" style="" class="label"><rect></rect><text style=""><tspan class="row" x="0" dy="1em" xml:space="preserve">모바일 매핑 수집</tspan></text></g></g><g transform="translate(266.9296875, 60)" data-id="G" data-node="true" id="flowchart-G-1647" class="node default default flowchart-label"><rect height="35" width="161.859375" y="-17.5" x="-80.9296875" ry="0" rx="0" style="" class="basic label-container"></rect><g transform="translate(0, -10)" style="" class="label"><rect></rect><text style=""><tspan class="row" x="0" dy="1em" xml:space="preserve">점군 정합·3D 재구성</tspan></text></g></g><g transform="translate(504.5859375, 17.5)" data-id="H" data-node="true" id="flowchart-H-1649" class="node default default flowchart-label"><rect height="35" width="213.453125" y="-17.5" x="-106.7265625" ry="0" rx="0" style="" class="basic label-container"></rect><g transform="translate(0, -10)" style="" class="label"><rect></rect><text style=""><tspan class="row" x="0" dy="1em" xml:space="preserve">차선·시설물 추출 (HD Map)</tspan></text></g></g><g transform="translate(746.7578125, 17.5)" data-id="X" data-node="true" id="flowchart-X-1651" class="node default default flowchart-label"><rect height="35" width="139.109375" y="-17.5" x="-69.5546875" ry="0" rx="0" style="" class="basic label-container"></rect><g transform="translate(0, -10)" style="" class="label"><rect></rect><text style=""><tspan class="row" x="0" dy="1em" xml:space="preserve">OpenDRIVE 변환</tspan></text></g></g><g transform="translate(746.7578125, 102.5)" data-id="U" data-node="true" id="flowchart-U-1653" class="node default default flowchart-label"><rect height="35" width="170.890625" y="-17.5" x="-85.4453125" ry="0" rx="0" style="" class="basic label-container"></rect><g transform="translate(0, -10)" style="" class="label"><rect></rect><text style=""><tspan class="row" x="0" dy="1em" xml:space="preserve">3D 자산 (USD·3DGS)</tspan></text></g></g><g transform="translate(969.8828125, 60)" data-id="A" data-node="true" id="flowchart-A-1655" class="node default default flowchart-label"><rect height="35" width="175.359375" y="-17.5" x="-87.6796875" ry="0" rx="0" style="" class="basic label-container"></rect><g transform="translate(0, -10)" style="" class="label"><rect></rect><text style=""><tspan class="row" x="0" dy="1em" xml:space="preserve">자산-도로망 정합 검사</tspan></text></g></g><g transform="translate(1181.3125, 60)" data-id="S" data-node="true" id="flowchart-S-1659" class="node default default flowchart-label"><rect height="35" width="147.5" y="-17.5" x="-73.75" ry="0" rx="0" style="" class="basic label-container"></rect><g transform="translate(0, -10)" style="" class="label"><rect></rect><text style=""><tspan class="row" x="0" dy="1em" xml:space="preserve">시뮬레이터 패키지</tspan></text></g></g><g transform="translate(1383.3125, 60)" data-id="V" data-node="true" id="flowchart-V-1661" class="node default default flowchart-label"><rect height="35" width="156.5" y="-17.5" x="-78.25" ry="0" rx="0" style="" class="basic label-container"></rect><g transform="translate(0, -10)" style="" class="label"><rect></rect><text style=""><tspan class="row" x="0" dy="1em" xml:space="preserve">실제 로그 재생 검증</tspan></text></g></g></g></g></g></svg>